<svg width="152" height="152" fill="none" xmlns="http://www.w3.org/2000/svg"><path fill="#EEE" d="M0 0h152v152H0z"/><path d="M107.571 81.642c-.334-8.89-1.671-17.78-1.671-26.669 0-7.243 1.337-14.815-1.337-21.73 0-.658.334-1.646.334-2.304.669-3.622-11.029-1.646-12.7 1.646-1.002.988-1.67 1.975-1.337 3.292 0 .33.335.659.335.988-2.34 10.536-5.348 21.072-8.69 31.278-1.337 3.95-3.008 7.902-4.345 11.853-2.005-3.622-4.01-7.244-5.681-11.194-4.68-11.524-8.69-23.047-14.371-33.912.668-4.939-10.695-4.61-13.034 0-2.674 5.597-2.34 11.194-1.337 17.45 1.002 6.913 1.337 13.498 1.337 20.412 0 13.17 1.336 26.34 1.336 39.509-1.336 1.317-1.67 2.963-.334 4.61a4111.2 4111.2 0 0 1 2.005 1.975c3.008 2.305 11.698.329 11.698-4.28 0-13.828-1.003-27.327-1.337-41.155V69.46c.334.33.334.988.668 1.317 2.006 5.268 4.345 10.536 7.353 15.474 3.008 4.939 4.345 10.207 6.016 15.474-.669.659-1.003 1.647-.669 2.305 0 .659.335.988 1.003 1.317 2.005 1.976 6.35.988 8.355 0 1.003-.329 2.005-.988 2.674-1.317 1.003-.658 3.008-2.305 2.34-3.951 0-.329-.335-.658-.335-.987 1.671-4.28 2.34-8.56 3.342-13.17 1.003-4.61 2.674-9.219 4.345-13.828.334 1.975.334 4.28.668 6.256.669 8.56 0 16.79 0 25.351 0 2.963.335 5.268.669 8.231.334.988 1.337 5.926 1.003 6.255-2.006 1.976-1.337 4.281 1.336 4.61 3.008.658 7.019-.329 9.358-2.305 4.011-3.621 2.006-9.548 1.337-14.157-2.005-7.902-.334-16.791-.334-24.693Z" fill="#000"/></svg>