<?xml version="1.0" encoding="UTF-8"?><!DOCTYPE svg PUBLIC "-//W3C//DTD SVG 1.1//EN" "http://www.w3.org/Graphics/SVG/1.1/DTD/svg11.dtd"><svg xmlns="http://www.w3.org/2000/svg" xmlns:xlink="http://www.w3.org/1999/xlink"><symbol id="about-icon-1" viewBox="0 0 33 38">
<path d="M16.5 38C25.575 38 33 30.6452 33 21.6559C23.925 21.6559 16.5 28.9086 16.5 38ZM4.74375 16.6505C4.74375 19.2043 6.80625 21.1452 9.28125 21.1452C10.2094 21.1452 11.1375 20.8387 11.8594 20.328V20.6344C11.8594 23.1882 13.9219 25.129 16.3969 25.129C18.975 25.129 20.9344 23.086 20.9344 20.6344V20.328C21.6562 20.8387 22.5844 21.1452 23.5125 21.1452C26.0906 21.1452 28.05 19.1021 28.05 16.6505C28.05 14.8118 27.0188 13.2796 25.4719 12.5645C27.0188 11.8495 28.05 10.3172 28.05 8.47849C28.05 5.92473 25.9875 3.98387 23.5125 3.98387C22.5844 3.98387 21.6562 4.29032 20.9344 4.80107V4.49462C20.9344 1.94086 18.8719 0 16.3969 0C13.8187 0 11.8594 2.04301 11.8594 4.49462V4.80107C11.1375 4.29032 10.2094 3.98387 9.28125 3.98387C6.70312 3.98387 4.74375 6.02688 4.74375 8.47849C4.74375 10.3172 5.775 11.8495 7.32188 12.5645C5.87813 13.2796 4.74375 14.8118 4.74375 16.6505ZM16.5 7.96774C19.0781 7.96774 21.0375 10.0108 21.0375 12.4624C21.0375 15.0161 18.975 16.957 16.5 16.957C13.9219 16.957 11.9625 14.914 11.9625 12.4624C11.9625 10.0108 13.9219 7.96774 16.5 7.96774ZM0 21.6559C0 30.6452 7.425 38 16.5 38C16.5 28.9086 9.075 21.6559 0 21.6559Z" fill="#63D1BB"/>
</symbol><symbol id="about-icon-2" viewBox="0 0 47 27">
<path d="M43.0665 0H3.93347C1.71459 0 0 1.68132 0 3.85714V23.1429C0 25.3187 1.71459 27 3.93347 27H43.0665C45.2854 27 47 25.3187 47 23.1429V3.85714C47 1.78022 45.1845 0 43.0665 0ZM3.02575 24.7253V2.76923H43.5708V24.7253H3.02575Z" fill="#63D1BB"/>
<path d="M6.95925 20.8683H39.6374V6.62659H6.95925V20.8683ZM23.5 8.50571C26.4249 8.50571 28.8455 10.8793 28.8455 13.7475C28.8455 16.6156 26.4249 18.9892 23.5 18.9892C20.5751 18.9892 18.1545 16.6156 18.1545 13.7475C18.1545 10.7804 20.5751 8.50571 23.5 8.50571Z" fill="#63D1BB"/>
</symbol><symbol id="about-icon-3" viewBox="0 0 34 27">
<path d="M34 8.44964C34 3.78777 29.9818 0 25.0364 0C21.5333 0 18.5455 1.94245 17 4.66187C15.5576 1.94245 12.4667 0 8.96364 0C4.01818 0 0 3.78777 0 8.44964C0 17.2878 15.1455 27 17 27C18.9576 27 34 17.3849 34 8.44964Z" fill="#63D1BB"/>
</symbol><symbol id="about-icon-4" viewBox="0 0 35 34">
<path d="M0.305558 13.9528C-0.101853 16.0303 -0.101853 18.1079 0.305558 20.1854L4.48152 17.0196L0.305558 13.9528Z" fill="#63D1BB"/>
<path d="M24.852 1.586C19.9631 -0.590493 14.2594 -0.590493 9.26857 1.98172L16.9075 7.52187L24.852 1.586Z" fill="#63D1BB"/>
<path d="M34.528 13.062L29.6391 16.7225L34.6299 20.3829C35.1392 18.0086 35.1392 15.4364 34.528 13.062Z" fill="#63D1BB"/>
<path d="M9.37046 32.057C14.2594 34.5303 20.2687 34.7281 25.3613 32.1559L17.1113 26.1211L9.37046 32.057Z" fill="#63D1BB"/>
<path d="M8.04639 14.2488L1.73152 9.698C1.42596 10.3905 1.1204 11.083 0.916698 11.7756L6.31489 15.7328L8.04639 14.2488Z" fill="#63D1BB"/>
<path d="M18.9446 24.8349L27.3983 30.9686C27.7039 30.7707 28.0095 30.5729 28.2132 30.375C28.5187 30.1772 28.8243 29.8804 29.1298 29.5836L20.6761 23.4498L18.9446 24.8349Z" fill="#63D1BB"/>
<path d="M11.6112 11.5781L4.07412 6.13684C3.56486 6.6315 3.15745 7.22509 2.75003 7.81867L9.77787 12.9631L11.6112 11.5781Z" fill="#63D1BB"/>
<path d="M22.5094 22.1635L30.7595 28.1983C31.2688 27.7036 31.6762 27.11 32.0836 26.5165L24.2409 20.7784L22.5094 22.1635Z" fill="#63D1BB"/>
<path d="M15.176 8.90696L7.33339 3.16895C7.12969 3.26788 6.92598 3.46574 6.72228 3.56467C6.31487 3.86146 5.90746 4.15826 5.6019 4.55398L13.4446 10.1931L15.176 8.90696Z" fill="#63D1BB"/>
<path d="M26.0743 19.3936L33.204 24.538C33.5095 23.8455 33.8151 23.2519 34.1206 22.5594L27.9076 18.0085L26.0743 19.3936Z" fill="#63D1BB"/>
<path d="M26.8891 2.67419L0.916698 22.3615C1.1204 23.054 1.42596 23.7466 1.73152 24.4391L28.7225 3.9603C28.2132 3.46564 27.6021 3.06992 26.8891 2.67419Z" fill="#63D1BB"/>
<path d="M31.2688 6.53234C30.9632 6.13661 30.6576 5.74089 30.3521 5.44409L2.85186 26.2197C3.05557 26.7143 3.36113 27.11 3.66669 27.4068C3.76854 27.6047 3.97224 27.8026 4.0741 27.9015L31.778 7.12592C31.5743 6.92806 31.4725 6.7302 31.2688 6.53234Z" fill="#63D1BB"/>
<path d="M32.8984 8.90674L5.70373 29.4844C6.21299 29.9791 6.82411 30.4738 7.43522 30.8695L33.9169 10.8854C33.6114 10.1928 33.3058 9.50033 32.8984 8.90674Z" fill="#63D1BB"/>
</symbol><symbol id="about-icon-5" viewBox="0 0 55 23">
<path d="M40.9467 5.75002C37.307 4.75864 33.0607 4.06466 28.41 4.06466C25.478 4.06466 22.8493 4.26294 20.625 4.65949L13.75 0H0.10114L5.9651 6.14656H14.4577C9.80697 7.73277 7.58272 9.61639 7.58272 9.61639V13.3836C7.58272 13.3836 9.90811 15.2672 14.5588 16.8534H5.86396L0 23H13.6489L20.5239 18.3405C22.8492 18.7371 25.3768 18.9354 28.3088 18.9354C32.8584 18.9354 37.1048 18.2414 40.8456 17.25C39.6324 15.4655 38.9246 13.5819 38.9246 11.4009C39.0257 9.4181 39.8345 7.5345 40.9467 5.75002Z" fill="#63D1BB"/>
<path d="M44.4853 6.74121C43.1709 8.32742 42.4632 9.91361 42.4632 11.4998C42.4632 13.086 43.1709 14.6722 44.4853 16.2585C50.9559 14.0774 55 11.4998 55 11.4998C55 11.4998 50.9559 8.92224 44.4853 6.74121Z" fill="#63D1BB"/>
</symbol><symbol id="about-icon-6" viewBox="0 0 33 32">
<path d="M3.02752 32H15.6422V18.2716H3.02752V32ZM31.3853 8.69136H24.0183C24.5229 8.39506 25.0275 8.19753 25.4312 7.90123C27.0459 6.81481 27.8532 5.33333 27.8532 3.95062C27.8532 2.76543 27.2477 1.77777 26.4404 1.08641C25.633 0.395053 24.5229 0 23.4128 0C22.2018 0 20.9908 0.395053 20.0826 1.08641C18.5688 2.07406 17.4587 3.55555 16.6514 5.1358C16.6514 5.23456 16.5505 5.33333 16.5505 5.33333C16.2477 4.74073 15.945 4.14814 15.5413 3.55555C14.8349 2.56789 14.0275 1.679 13.0183 1.08641C12.0092 0.493818 10.8991 0 9.68807 0C8.47706 0 7.36697 0.49383 6.45871 1.28395C5.65137 2.07408 5.04587 3.16049 5.04587 4.34567C5.04587 5.03703 5.2477 5.82715 5.65137 6.51851C6.25687 7.4074 7.06422 8.09877 8.27523 8.69136H1.61467C0.706413 8.69136 0 9.38271 0 10.2716V16.0988H15.5413V8.69136H17.4587V16.0988H33V10.2716C33 9.38271 32.2936 8.69136 31.3853 8.69136ZM8.88073 6.41975C8.27522 6.02469 7.87155 5.62962 7.66972 5.33333C7.46788 4.93826 7.36696 4.64197 7.36696 4.34567C7.36696 3.85184 7.56881 3.35802 8.0734 2.86419C8.47707 2.46913 9.08256 2.17284 9.68807 2.17284C10.3945 2.17284 11.1009 2.37036 11.7064 2.86419C12.7156 3.55555 13.7248 4.64196 14.3303 6.02468C14.633 6.71604 14.9358 7.4074 15.1376 8.09876C12.0092 7.80246 9.99082 7.11111 8.88073 6.41975ZM19.4771 4.8395C20.0826 4.04938 20.6881 3.35802 21.3945 2.96296C22.1009 2.46914 22.8073 2.27161 23.4128 2.27161C24.0183 2.27161 24.5229 2.46914 24.9266 2.76543C25.3303 3.06173 25.5321 3.45679 25.5321 3.95062C25.5321 4.44444 25.2294 5.23456 24.0183 6.02468C22.9083 6.8148 20.8899 7.7037 17.8624 8.29629C18.1651 7.1111 18.7706 5.82715 19.4771 4.8395ZM17.4587 32H30.0734V18.2716H17.4587V32Z" fill="#63D1BB"/>
</symbol><symbol id="cart" viewBox="0 0 21 18">
<path opacity="0.2" d="M20.1884 6.85716H16.6377L13.1884 0.380944C12.9855 -8.61287e-06 12.5797 -0.0952351 12.1739 0.0952412C11.7681 0.285717 11.6667 0.66667 11.8696 1.04762L15.0145 6.85716H5.7826L8.92753 1.04762C9.13043 0.66667 8.92754 0.285717 8.6232 0.0952412C8.2174 -0.0952351 7.8116 0.0952295 7.6087 0.380944L4.1594 6.85716H0.811583C0.405785 6.85716 0 7.14286 0 7.61905C0 8 0.304336 8.38094 0.811583 8.38094H1.01449L1.92753 11.2381C1.72463 11.3333 1.62317 11.5238 1.62317 11.8095C1.62317 12.1905 1.92753 12.4762 2.33332 12.4762L4.05797 18H16.942L18.6667 12.4762C19.0725 12.4762 19.3768 12.1905 19.3768 11.8095C19.3768 11.619 19.2754 11.3333 19.0725 11.2381L19.9855 8.38094H20.1884C20.5942 8.38094 21 8.09524 21 7.61905C21 7.14286 20.5942 6.85716 20.1884 6.85716ZM15.6232 16.4762H5.07247L3.85506 12.381H16.942L15.6232 16.4762ZM17.2464 10.9524H3.34782L2.53623 8.28573H18.058L17.2464 10.9524Z" fill="black"/>
</symbol><symbol id="checkbox-tick-mobile" viewBox="0 0 24 17">
<path d="M23.963 1.68385L22.9687 0.692322L8.76555 14.7862L1.73497 7.77467L0.740742 8.76619L7.77132 15.7777L8.76555 16.7692L9.83079 15.7777L23.963 1.68385Z" fill="black"/>
</symbol><symbol id="checkbox-tick-tablet" viewBox="0 0 33 22">
<path d="M32.3704 1.35683L31.0098 0L11.5739 19.2863L1.95311 9.69163L0.59259 11.0485L10.2134 20.6432L11.5739 22L13.0316 20.6432L32.3704 1.35683Z" fill="black"/>
</symbol><symbol id="flag" viewBox="0 0 47 81">
<path d="M7.76611 3.86183V42.3812L47 23.072L7.76611 3.86183ZM0 80.9005V0H3.83261V80.9005H0Z" fill="#63D1BB"/>
<path d="M3.83262 0.0996094H0V81.0001H3.83262V0.0996094Z" fill="#231F20"/>
</symbol><symbol id="htmlacademy" viewBox="0 0 28 35">
<path d="M13.9687 0.0444336H13.8687L0.368652 1.44443V26.1444L13.8687 34.1444L27.2687 26.1444V1.44443L13.9687 0.0444336ZM25.3687 12.1444L13.8687 5.34443V5.24443H13.7687L13.6687 5.14443V5.24443L2.26865 12.1444V3.14443L13.7687 1.94443L25.3687 3.14443V12.1444ZM13.7687 6.84443L25.2687 13.5444L20.7687 16.1444L13.6687 11.9444V13.3444L19.5687 16.8444L18.6687 17.3444L13.6687 14.3444V15.7444L17.4687 18.0444L16.6687 18.5444L13.6687 16.7444V18.1444L15.5687 19.2444L13.7687 20.3444L2.36865 13.6444L13.7687 6.84443ZM2.26865 15.1444L13.6687 21.9444V22.9444L5.76865 18.2444V19.6444L13.7687 24.4444V25.5444L5.76865 20.8444V22.2444L13.7687 27.0444L21.8687 22.1444V16.9444L25.2687 14.9444V24.9444L13.7687 31.8444L2.26865 25.0444V15.1444Z"/>
</symbol><symbol id="interior" viewBox="0 0 40 62">
<g opacity="0.5">
<path d="M15.162 37.7167C14.8627 38.7119 14.9625 39.9061 15.162 41.2994C15.6607 43.8869 16.8577 47.2705 17.556 50.9527H22.6433C23.3415 47.3701 24.5385 43.9864 25.137 41.2994C25.4363 39.9061 25.4363 38.6124 25.137 37.7167C24.8378 36.821 24.2393 36.1244 23.142 35.4277H17.157C15.96 36.1244 15.3615 36.821 15.162 37.7167Z" fill="#149080"/>
<path d="M26.9327 57.6211H13.1671C11.8703 57.6211 10.8728 58.6163 10.8728 59.8105V61.9999H13.1671H26.9327H29.2269V59.8105C29.2269 58.6163 28.2294 57.6211 26.9327 57.6211Z" fill="#149080"/>
<path d="M34.015 2.18943H22.3441C22.3441 0.995194 21.3466 0 20.0499 0C18.7531 0 17.7556 0.995194 17.7556 2.18943H6.08478L0 27.5668C0.798005 27.0693 1.59602 26.5717 2.59352 26.5717C3.99003 26.5717 4.78803 27.3678 5.48629 27.9649C6.18454 28.562 6.68329 28.7611 6.88279 28.7611C7.18204 28.7611 7.68079 28.4625 8.37905 27.9649C9.0773 27.4673 9.97505 26.5717 11.2718 26.5717C12.5686 26.5717 13.4663 27.3678 14.1646 27.9649C14.8628 28.4625 15.3616 28.7611 15.6608 28.7611C15.7606 28.7611 15.9601 28.6616 16.2593 28.562C16.4588 28.4625 16.7581 28.164 17.1571 27.9649C17.6559 27.5668 18.2544 26.9697 19.1521 26.7707C19.4514 26.6712 19.7506 26.6712 20.0499 26.6712C21.3466 26.6712 22.2444 27.4673 22.9426 28.0644C23.6409 28.562 24.1397 28.8606 24.4389 28.8606C24.7382 28.8606 25.2369 28.562 25.8354 28.0644C26.5337 27.4673 27.4314 26.6712 28.7282 26.6712C30.1247 26.6712 30.9227 27.4673 31.621 28.0644C31.9202 28.363 32.2194 28.562 32.5187 28.6616C32.7182 28.7611 32.9177 28.8606 33.1172 28.8606C33.4165 28.8606 33.9152 28.562 34.5137 27.9649C35.212 27.3678 36.1097 26.5717 37.4065 26.5717C38.404 26.5717 39.202 27.0693 40 27.5668L34.015 2.18943Z" fill="#149080"/>
<path d="M23.4415 53.1426H16.5587C15.8604 53.1426 15.4614 53.6402 15.4614 54.2373C15.4614 54.8344 15.9602 55.332 16.5587 55.332H23.4415C24.1397 55.332 24.5387 54.8344 24.5387 54.2373C24.6385 53.6402 24.1397 53.1426 23.4415 53.1426Z" fill="#149080"/>
<path d="M20.0499 28.7598C19.9501 28.7598 19.7506 28.8593 19.4514 28.9588C19.2519 29.0583 19.0524 29.2574 18.8529 29.3569V33.0391H21.1471V29.4564C20.6484 29.0583 20.2494 28.7598 20.0499 28.7598Z" fill="#149080"/>
</g>
</symbol><symbol id="logo-footer" viewBox="0 0 102 34">
<path d="M19.2204 21.3813C19.1204 18.6962 18.7204 16.1105 18.7204 13.4255C18.7204 11.2376 19.1204 9.04976 18.3204 6.96135C18.3204 6.76246 18.4204 6.46411 18.4204 6.26522C18.6204 5.27074 15.1204 5.76798 14.6204 6.76246C14.3204 7.0608 14.1204 7.35914 14.2204 7.75694C14.2204 7.85638 14.3204 7.95583 14.3204 8.05528C13.6204 11.2376 12.7204 14.3205 11.7204 17.4034C11.3204 18.5967 10.8204 19.6907 10.4204 20.884C9.82041 19.7901 9.22041 18.6962 8.82041 17.5028C7.42041 14.1216 6.22041 10.6409 4.52041 7.35914C4.72041 5.86743 1.32041 5.96688 0.620408 7.35914C-0.179592 9.04976 -0.0795918 10.7404 0.220408 12.5304C0.520408 14.5194 0.620408 16.5083 0.620408 18.5967C0.620408 22.5746 1.02041 26.4531 1.02041 30.431C0.620408 30.8288 0.520408 31.326 0.920408 31.8233C1.12041 32.0222 1.32041 32.2211 1.52041 32.3205C2.52041 33.0167 5.12041 32.42 5.12041 31.0277C5.12041 26.9503 4.82041 22.873 4.72041 18.6962C4.72041 18.2984 4.72041 17.9006 4.72041 17.5028C4.82041 17.6023 4.82041 17.8012 4.92041 17.9006C5.52041 19.4918 6.22041 21.0829 7.12041 22.5746C8.02041 24.0664 8.42041 25.6575 8.92041 27.2487C8.72041 27.4476 8.62041 27.7459 8.72041 27.9448C8.72041 28.1437 8.82041 28.2432 9.02041 28.3426C9.62041 28.8399 10.8204 28.641 11.5204 28.3426C11.8204 28.2432 12.1204 28.0443 12.3204 27.9448C12.6204 27.7459 13.2204 27.2487 13.0204 26.7514C13.0204 26.652 12.9204 26.5526 12.9204 26.4531C13.4204 25.1603 13.6204 23.8675 13.9204 22.5746C14.2204 21.1824 14.7204 19.7901 15.2204 18.4973C15.3204 19.094 15.3204 19.6907 15.4204 20.3868C15.6204 22.9724 15.4204 25.4586 15.4204 27.9448C15.4204 28.7404 15.5204 29.536 15.6204 30.431C15.7204 30.7294 16.0204 32.2211 15.9204 32.3205C15.1204 32.8178 15.3204 33.4144 16.1204 33.6133C17.0204 33.8122 18.2204 33.5139 18.9204 32.9172C20.1204 31.8233 19.5204 30.1327 19.3204 28.7404C18.8204 26.3537 19.3204 23.768 19.2204 21.3813Z"/>
<path d="M27.6201 22.0776C27.5201 20.0887 26.8201 18.1992 26.8201 16.2102C26.8201 13.9229 27.0201 11.6356 26.6201 9.34833C26.5201 8.65219 22.5201 9.44778 22.7201 10.3428C23.0201 12.4312 22.9201 14.5196 22.9201 16.7075C22.9201 18.6964 23.4201 20.5859 23.6201 22.5749C23.9201 24.6633 23.5201 26.7517 23.7201 28.7406C23.8201 29.7351 24.5201 31.4257 23.8201 32.3208C23.4201 32.818 25.3201 32.6191 25.4201 32.6191C26.2201 32.5196 27.2201 32.2213 27.7201 31.6246C28.4201 30.829 27.9201 29.2379 27.8201 28.2434C27.5201 26.2544 27.7201 24.0666 27.6201 22.0776Z"/>
<path d="M43.9205 18.7956C41.8205 16.0111 38.0205 18.0001 35.3205 17.3039C33.9205 16.9061 33.9205 15.0166 33.9205 13.9227C33.9205 12.5304 33.8205 11.2376 33.6205 9.84534C33.5205 8.75142 33.6205 7.75694 34.3205 6.96136C34.4205 6.86191 35.2205 6.66302 35.1205 6.66302C35.5205 6.56357 35.8205 6.56357 36.2205 6.56357C37.7205 6.46412 40.8205 6.76247 40.2205 9.04976C39.9205 10.0442 43.8205 9.44755 44.1205 8.45308C45.3205 3.87848 36.8205 4.77351 34.4205 5.3702C32.2205 5.96688 29.8205 7.16026 29.6205 9.7459C29.5205 10.9393 29.9205 12.1326 29.9205 13.326C30.0205 14.7183 29.7205 16.1106 30.2205 17.4034C31.3205 20.3868 35.7205 18.9945 38.0205 19.094C41.8205 19.3923 40.7205 24.5636 40.7205 26.9504C40.7205 28.2432 41.9205 30.3316 40.9205 31.4255C40.3205 32.1216 38.9205 32.1216 38.1205 32.2211C37.3205 32.3205 35.9205 32.5194 35.4205 31.7238C34.4205 30.3316 35.5205 27.9448 35.3205 26.3537C35.2205 25.4586 31.2205 26.2542 31.4205 27.3481C31.7205 29.9338 30.0205 33.4145 33.8205 33.9117C36.2205 34.21 39.0205 33.7128 41.3205 33.0167C42.5205 32.6189 43.6205 32.1216 44.5205 31.2266C45.5205 30.3316 45.2205 28.9393 44.9205 27.7459C44.4205 24.6631 45.8205 21.2818 43.9205 18.7956Z"/>
<path d="M61.3201 18.5966C61.2201 14.8176 60.6201 11.1381 60.6201 7.35905C60.6201 5.37009 56.6201 6.06623 56.6201 7.65739C56.6201 11.2375 57.1201 14.8176 57.3201 18.3977C57.3201 18.4972 57.3201 18.4972 57.3201 18.5966C55.4201 18.5966 53.4201 18.7955 51.4201 18.7955C51.6201 14.2209 50.8201 9.64634 51.0201 4.9723C51.0201 4.37561 47.1201 4.87285 47.1201 5.96678C46.9201 10.4419 47.7201 14.8176 47.6201 19.2928C47.5201 21.3812 47.4201 23.569 47.3201 25.6574C47.3201 26.7514 47.5201 27.8453 47.6201 28.9392C47.7201 29.9337 48.1201 31.2265 47.8201 32.221C47.6201 33.0166 51.4201 32.5193 51.7201 31.5248C52.2201 29.7348 51.5201 27.5469 51.3201 25.7569C51.1201 24.0663 51.3201 22.2762 51.4201 20.5856C53.4201 20.4861 55.5201 20.2873 57.5201 20.5856C57.6201 21.9779 57.7201 23.3701 57.8201 24.663C57.9201 25.8563 58.0201 26.9502 58.0201 28.1436C58.0201 29.1381 58.1201 30.6298 57.8201 31.6243C57.0201 33.7127 60.9201 33.5138 61.5201 32.0221C62.2201 30.1326 62.0201 27.8453 61.9201 25.8563C61.7201 23.3701 61.3201 20.9834 61.3201 18.5966Z"/>
<path d="M78.22 22.9729C77.32 20.1884 75.82 17.8016 74.62 15.216C75.62 13.3265 76.62 11.3375 77.52 9.34855C78.32 7.55849 78.92 5.56954 80.62 4.27672C81.22 3.87892 81.22 3.38169 80.32 3.28224C79.42 3.18279 78.22 3.48113 77.52 3.97837C76.12 5.27119 75.12 6.66346 74.42 8.35407C73.52 10.4425 72.52 12.4314 71.52 14.4204C71.42 14.5198 71.42 14.7187 71.32 14.8182C70.82 15.1165 70.52 15.6138 70.72 16.111C69.92 17.7022 69.12 19.1939 68.22 20.6856C67.92 15.216 67.22 9.64689 67.02 4.17727C67.02 2.88445 63.02 3.68003 63.12 5.17174C63.32 12.0336 64.32 18.7961 64.42 25.658C64.42 25.658 64.42 25.658 64.42 25.7574C64.12 26.0558 64.22 26.2547 64.52 26.3541C64.52 28.1442 64.42 29.8348 64.32 31.6248C63.82 32.321 64.82 32.7188 65.42 32.7188H65.52C66.22 32.7188 68.12 32.4204 68.22 31.3265C68.42 29.2381 68.52 27.1497 68.42 25.0613C70.02 23.3707 71.32 21.4812 72.52 19.4922C73.32 20.9839 74.02 22.4756 74.52 24.0668C75.42 26.7519 76.82 29.3375 77.62 32.0226C78.12 33.8127 82.12 32.7188 81.52 31.0282C80.52 28.2436 79.12 25.7574 78.22 22.9729Z"/>
<path d="M101.721 18.3983C101.521 17.6027 100.321 17.6027 99.4207 17.6027C99.4207 17.3043 99.4207 16.9066 99.4207 16.6082C99.3207 13.9231 99.2207 11.238 99.0207 8.6524C98.8207 6.1662 97.4207 5.37062 95.0207 5.47007C92.6207 5.56952 89.8207 5.96731 87.5207 6.86234C84.9207 7.85682 83.4207 9.74632 82.9207 12.5309C82.4207 15.5143 83.1207 18.6966 83.3207 21.68C83.5207 25.1607 83.4207 28.6414 83.4207 32.1221C83.4207 32.7187 87.3207 32.1221 87.3207 31.1276C87.3207 28.343 87.3207 25.5585 87.3207 22.8734C87.3207 22.0778 87.2207 21.2823 87.2207 20.4867C88.6207 19.89 90.9207 20.4867 92.3207 20.5861C93.4207 20.6856 94.5207 20.3872 95.5207 20.2878C95.5207 22.5751 95.6207 24.8624 95.7207 27.1497C95.7207 28.343 96.2207 30.6303 95.3207 31.6248C94.9207 32.1221 96.8207 31.9232 96.9207 31.9232C97.7207 31.8237 98.7207 31.5254 99.2207 30.9287C100.121 29.8348 99.7207 27.1497 99.6207 25.8569C99.5207 23.9673 99.5207 22.0778 99.5207 20.1883C100.621 19.9894 101.921 19.2933 101.721 18.3983ZM87.1207 18.2988C87.0207 17.1055 86.9207 15.8126 86.8207 14.6193C86.6207 12.332 86.9207 9.05019 89.1207 7.65792C89.7207 7.26013 90.8207 7.35958 91.5207 7.26013C92.5207 7.06123 93.5207 6.86234 94.3207 7.45902C95.5207 8.25461 95.2207 11.1386 95.2207 12.332C95.2207 14.3209 95.4207 16.3099 95.5207 18.2988C94.9207 18.3983 94.4207 18.3983 93.8207 18.3983C91.5207 18.1994 89.2207 17.8016 87.1207 18.2988Z"/>
<path d="M24.2204 6.663C24.7204 6.56355 25.2204 6.4641 25.7204 6.16576C25.8204 6.06631 25.9204 5.96686 25.9204 5.96686C26.4204 5.66852 26.9204 5.17128 26.6204 4.57459C26.1204 3.48067 26.2204 2.38675 26.2204 1.19337C26.2204 0.198895 25.2204 0 24.4204 0C23.7204 0.0994477 22.2204 0.596686 22.2204 1.49172C22.2204 2.48619 22.1204 3.48067 22.3204 4.47515C22.3204 4.57459 22.2204 4.67404 22.2204 4.87294C22.1204 5.07183 22.2204 5.27073 22.3204 5.46962V5.56907C22.3204 5.66852 22.3204 5.76797 22.3204 5.86742C22.4204 6.06631 22.5204 6.26521 22.7204 6.36465C23.3204 6.663 23.8204 6.663 24.2204 6.663Z"/>
</symbol><symbol id="mishka-logo-desktop" viewBox="0 0 149 72">
<path d="M144.16 31.1053C142.65 32.1912 141.039 32.9809 139.428 33.8693C139.428 32.1912 139.328 30.4143 138.824 28.8349C138.925 28.5388 138.925 28.1439 138.925 27.8478C139.328 24.8864 139.63 20.8391 136.912 18.7662C136.61 18.47 135.704 18.7662 134.999 19.0623C134.798 18.8649 134.697 18.7662 134.496 18.6674C134.395 18.47 134.295 18.1739 134.295 17.9765C134.295 17.8777 134.093 17.779 133.892 17.779C134.194 17.3842 134.194 16.9893 133.489 16.6932C133.087 16.4958 132.684 16.397 132.382 16.2983C132.281 16.1996 132.281 16.1996 132.181 16.1996C131.275 15.9035 130.268 15.7061 129.261 15.5086C129.362 15.2125 129.664 14.7189 129.865 14.5215C129.966 14.3241 130.167 14.2254 130.268 14.1266C130.369 14.0279 130.369 14.0279 130.469 13.9292C130.469 13.9292 130.57 13.9292 130.57 13.8305C130.57 13.8305 130.57 13.8305 130.671 13.7318C131.073 13.4356 131.476 12.8434 130.872 12.5472C130.268 12.2511 129.362 12.4485 128.859 12.7447C127.953 13.4356 127.248 14.1266 126.745 15.1138C124.732 14.9163 122.718 14.9163 120.604 15.0151C120.705 14.9163 120.705 14.8176 120.705 14.7189C120.906 14.1266 119.799 14.2254 119.497 14.2254C117.886 14.4228 116.376 14.6202 114.766 14.8176C116.175 11.0665 117.886 6.3283 115.772 2.67591C114.564 0.602929 111.847 0.109363 109.632 0.0106495C107.216 -0.0880637 104.699 0.504216 102.585 1.59006C97.7536 4.1566 95.4383 9.19098 94.331 14.5215C93.8277 13.8305 92.0157 14.1266 91.7137 15.0151C91.6131 15.3112 91.5124 15.6073 91.4117 16.0022C91.2104 16.1996 91.1097 16.397 91.1097 16.5945C91.1097 16.6932 91.1097 16.6932 91.1097 16.7919C91.0091 16.7919 91.0091 16.7919 90.9084 16.7919C90.9084 16.6932 90.9084 16.5945 91.0091 16.4958C91.1097 16.397 91.2104 16.2983 91.3111 16.1009C91.915 13.8305 92.519 11.5601 93.2237 9.3884C93.5257 8.5987 90.7071 8.99355 90.4051 9.78326C90.0024 10.9678 89.5998 12.1524 89.2978 13.3369C89.0965 13.4356 88.8951 13.5344 88.8951 13.6331V13.7318C88.7945 13.6331 88.5931 13.5344 88.3918 13.5344C88.3918 13.2382 88.3918 12.9421 88.3918 12.5472C88.3918 12.1524 85.5732 12.5472 85.5732 13.3369C85.5732 13.8305 85.5732 14.3241 85.5732 14.9163C85.3719 15.0151 85.2712 15.1138 85.0699 15.2125C84.9692 15.3112 84.9692 15.3112 84.8686 15.4099C84.7679 15.5086 84.7679 15.6073 84.7679 15.6073V15.7061C84.7679 15.7061 84.7679 15.706 84.6672 15.8048C84.5666 15.9035 84.4659 16.1009 84.6672 16.2983C84.8686 16.4958 85.1706 16.4958 85.3719 16.4958H85.4725C85.4725 16.6932 85.4725 16.7919 85.4725 16.9893C85.2712 16.9893 84.9692 16.9893 84.7679 16.9893L84.3652 16.8906C84.3652 16.4958 83.6606 16.397 82.9559 16.5945V16.4958C82.8553 15.9035 82.7546 15.3112 82.7546 14.7189C82.9559 14.6202 83.2579 14.5215 83.4593 14.4228C83.6606 14.3241 83.7613 14.2254 83.7613 14.0279C83.7613 13.9292 83.7613 13.9292 83.7613 13.8305C83.7613 13.6331 83.3586 13.6331 83.2579 13.6331C83.0566 13.6331 82.8553 13.6331 82.654 13.6331C82.5533 12.3498 82.5533 11.0665 82.5533 9.78326C82.5533 8.99355 79.7347 9.48712 79.7347 10.573C79.7347 12.3498 79.7347 14.1266 79.936 15.8048C79.8354 15.8048 79.7347 15.8048 79.634 15.8048C79.634 15.3112 79.634 14.8176 79.634 14.3241C79.634 13.3369 78.3254 13.1395 77.5201 13.5344C77.8221 13.2382 78.0234 12.9421 77.9227 12.5472C77.5201 11.1652 77.1174 9.78326 76.9161 8.30256C76.7148 6.92057 73.8962 7.61157 74.0975 9.09227C74.2988 10.573 74.7015 11.9549 75.1041 13.3369C75.3055 14.1266 76.4128 14.2254 77.2181 13.8305C77.0168 14.0279 76.8154 14.3241 76.8154 14.6202C76.8154 14.8176 76.8154 15.0151 76.8154 15.2125C76.5135 14.9163 76.3121 14.9163 75.9095 14.9163C74.8022 14.9163 74.1982 15.8048 74.5002 16.397C74.2988 16.397 74.1982 16.2983 73.9968 16.2983C73.5942 15.1138 73.2922 13.8305 73.2922 12.5472C73.2922 11.6588 71.9836 11.5601 71.1783 11.8562C71.1783 11.7575 71.1783 11.7575 71.1783 11.6588C70.7756 10.8691 70.5743 9.98068 70.3729 9.19098C70.071 7.90771 67.1517 8.5987 67.5543 9.98068C67.7557 10.573 67.8563 11.264 68.0577 11.8562C68.0577 11.8562 68.0577 11.8562 67.957 11.8562C67.655 11.9549 67.353 12.0537 67.051 12.2511C66.2457 12.3498 65.2391 12.8434 65.2391 13.4356C65.3397 13.9292 65.3397 14.4228 65.4404 14.8176C65.0377 14.9163 64.4338 14.9163 63.9304 15.0151C63.6285 14.2254 63.4271 13.4356 63.3265 12.6459C63.2258 11.7575 61.7158 11.7575 61.0112 12.3498C60.2059 10.2768 59.1992 8.40127 57.8906 6.62443C55.1727 3.26819 50.6428 2.08363 46.5156 2.97205C44.6029 3.3669 42.791 4.1566 41.4824 5.53859C40.2744 6.92057 40.0731 8.5987 40.2744 10.2768C40.4757 11.7575 40.8784 14.2254 41.885 16.1996C41.4824 16.1996 41.1804 16.1996 40.979 16.2983C40.677 16.397 40.3751 16.4958 40.1737 16.6932C38.2611 16.6932 36.2478 16.6932 34.3352 16.5945C30.1073 16.397 25.9801 15.7061 21.7522 15.9035C20.8462 15.9035 20.2422 16.5945 20.2422 17.1867C19.2356 17.6803 18.531 18.47 18.1283 19.4572C16.417 18.3713 14.6051 17.1867 12.7931 16.2983C12.0885 15.9035 9.47119 16.9893 10.4778 17.4829C12.2898 18.3713 14.1017 19.5559 15.813 20.6417C16.3163 20.9378 17.1217 20.7404 17.625 20.543C17.625 20.543 17.7256 20.543 17.8263 20.4443C17.5243 21.8263 17.625 23.5044 18.0276 24.8864C18.0276 24.9851 18.1283 25.0838 18.229 25.1825C18.229 25.4787 18.229 25.8735 18.229 26.1697C18.229 26.2684 18.229 26.2684 18.229 26.3671C17.8263 26.5645 17.5243 26.8606 17.4236 27.1568C17.2223 28.5388 17.1217 29.9208 17.1217 31.3027C16.8197 31.5002 16.6183 31.7963 16.6183 32.0924C16.417 35.35 16.6183 38.7062 17.1217 41.9638C17.323 44.629 17.8263 47.1956 18.3296 49.8608C18.4303 50.2557 18.4303 50.6505 18.531 51.1441C18.229 52.2299 18.1283 53.5132 18.3296 54.5991C17.4236 54.7965 16.6183 55.4875 17.1217 56.1785C17.927 57.363 18.7323 58.1527 19.7389 58.745C19.1349 58.6463 18.3296 58.8437 17.8263 59.3373C17.021 60.127 16.115 60.818 15.3097 61.6077C14.907 62.0025 15.0077 62.4961 15.6117 62.6935C16.3163 62.891 17.1217 62.5948 17.625 62.2C18.4303 61.4103 19.3363 60.7193 20.1416 59.9296C20.3429 59.7321 20.4436 59.436 20.3429 59.2386C23.5642 60.9167 27.5907 60.5218 31.5166 60.127C30.6106 61.7064 30.0067 63.3845 29.302 65.0627C29 65.7536 31.8186 65.4575 32.1206 64.6678C32.7246 62.9897 33.3286 61.4103 34.2345 59.8309C37.9591 59.9296 41.7844 59.9296 45.5089 59.9296C45.6096 60.127 45.9116 60.2257 46.2136 60.2257C49.5355 60.5219 52.7567 60.127 55.978 59.5347C60.8099 59.3373 65.6417 59.0411 70.4736 58.745C78.0234 58.5476 85.6739 58.4489 93.2237 58.4489C93.3243 58.5476 93.425 58.6463 93.5257 58.745C93.8277 59.0411 94.1297 59.0411 94.5323 59.0411C94.633 59.0411 94.633 59.0411 94.7336 59.0411C95.4383 59.0411 96.1429 59.1399 96.8476 59.1399C97.0489 59.1399 97.1496 59.2386 97.4516 59.1399C98.2569 59.2386 99.0622 59.2386 99.7668 59.3373C99.9682 59.5347 100.27 59.6334 100.572 59.7321C104.397 60.0283 108.223 60.2257 112.048 60.4231C112.149 60.6206 112.551 60.7193 112.853 60.7193C120 60.818 128.255 63.4832 134.597 59.0411C135.1 58.6463 134.899 58.1527 134.295 58.054C134.194 58.054 134.093 58.054 133.993 58.054C135.201 55.29 136.207 52.5261 136.912 49.5647C137.315 49.3673 137.516 49.0711 137.516 48.6763C137.516 47.4917 137.717 46.3071 137.919 45.1226C138.12 44.2342 138.221 43.3457 138.321 42.4573C138.724 40.2856 139.126 38.1139 139.328 36.041C141.643 34.9551 143.858 33.7706 145.972 32.2899C147.582 31.1053 145.166 30.4143 144.16 31.1053ZM88.3918 16.2983L88.2911 16.397C88.3918 16.1009 88.3918 15.8048 88.4925 15.5086H88.5931C88.5931 15.7061 88.4925 16.0022 88.3918 16.2983Z" fill="black"/>
<path d="M63.729 12.5468C63.8297 12.7442 64.333 12.7442 64.5343 12.7442C64.937 12.7442 65.3396 12.6455 65.6416 12.5468C66.0443 12.3494 66.7489 11.9545 66.4469 11.461C66.0443 10.8687 65.8429 10.2764 65.4403 9.68411C65.3396 9.48669 64.8363 9.48669 64.635 9.48669C64.2323 9.48669 63.8296 9.5854 63.5277 9.68411C63.125 9.88154 62.4204 10.2764 62.7223 10.77C63.0243 11.3622 63.3263 12.0532 63.729 12.5468Z" fill="black"/>
<path d="M20.8461 10.8691C21.0474 11.4613 21.9534 11.4613 22.4567 11.3626C22.96 11.2639 23.866 10.7703 23.6647 10.0793C23.4634 9.48707 23.262 8.79608 22.7587 8.30251C22.2554 7.80894 21.4501 7.90766 20.8461 8.10508C20.4434 8.30251 19.6381 8.89479 20.1414 9.38835C20.5441 9.98063 20.6448 10.2768 20.8461 10.8691Z" fill="black"/>
<path d="M30.9124 13.8306C31.7177 13.8306 34.033 12.5474 32.1204 12.5474C31.2144 12.5474 28.9998 13.8306 30.9124 13.8306Z" fill="black"/>
<path d="M123.423 12.2512C123.725 12.3499 124.128 12.2512 124.53 12.1525C124.832 12.0538 125.235 11.9551 125.436 11.659C125.839 11.2641 126.141 10.968 126.443 10.4744C126.544 10.277 126.644 10.0795 126.443 9.88212C126.242 9.68469 125.94 9.68469 125.638 9.58598C125.235 9.58598 124.832 9.68469 124.53 9.78341C124.228 9.88212 123.926 10.0795 123.725 10.3757C123.624 10.5731 123.524 10.7705 123.322 10.8693C123.222 10.968 123.222 10.968 123.121 11.0667C122.92 11.2641 122.819 11.4615 122.819 11.659C122.92 12.0538 123.121 12.1525 123.423 12.2512Z" fill="black"/>
<path d="M136.811 17.5816C137.415 17.4828 138.22 17.3841 138.724 16.8906C140.032 15.8047 141.341 14.7189 142.347 13.3369C142.649 12.942 141.341 13.1395 141.24 13.1395C140.737 13.2382 139.932 13.4356 139.529 13.8305C138.623 15.1137 137.314 16.1009 136.106 17.1867C135.603 17.5816 136.509 17.5816 136.811 17.5816Z" fill="black"/>
<path d="M147.682 44.3332C146.072 44.3332 144.461 44.3332 142.75 44.3332C142.146 44.3332 141.24 44.8268 141.139 45.4191C141.039 46.1101 141.945 46.3075 142.448 46.3075C144.059 46.3075 145.669 46.3075 147.38 46.3075C147.984 46.3075 148.89 45.8139 148.991 45.2216C149.092 44.5307 148.286 44.3332 147.682 44.3332Z" fill="black"/>
<path d="M57.3874 60.1268C56.8841 60.2255 55.9781 60.423 55.7768 60.9165C55.2734 62.1998 54.7701 63.4831 54.3675 64.7663C54.1661 65.4573 56.9847 65.0625 57.1861 64.2728C57.5887 62.9895 57.9914 61.7062 58.5954 60.423C58.7967 59.9294 57.5887 60.1268 57.3874 60.1268Z" fill="black"/>
<path d="M62.0178 62.6935C61.7158 62.6935 61.3132 62.7922 61.0112 62.8909C60.7092 62.9896 60.3065 63.0883 60.0045 63.2858C59.9039 63.3845 59.7025 63.4832 59.7025 63.6806C59.7025 63.7793 59.7025 63.8781 59.7025 63.9768C59.7025 64.0755 59.6019 64.1742 59.6019 64.2729C59.5012 64.3716 59.5012 64.4703 59.6019 64.569C59.8032 64.6678 60.1052 64.6678 60.3065 64.6678C60.7092 64.6678 61.0112 64.569 61.4138 64.3716C61.6151 64.2729 62.0178 64.1742 62.2191 63.9768C62.3198 63.7793 62.4205 63.6806 62.5211 63.4832C62.5211 63.2858 62.5211 63.1871 62.5211 62.9896C62.5211 62.6935 62.1185 62.6935 62.0178 62.6935Z" fill="black"/>
<path d="M117.483 66.3456C117.081 65.6546 114.464 66.6417 114.665 67.1353C115.47 68.7147 116.577 70.1954 117.584 71.7748C117.987 72.4658 120.604 71.38 120.403 70.9851C119.396 69.4057 118.289 67.925 117.483 66.3456Z" fill="black"/>
<path d="M121.51 63.9767C121.208 63.3844 120.403 63.3844 119.9 63.5818C119.497 63.6805 118.39 64.1741 118.692 64.7664C119.094 65.5561 119.497 66.3458 119.9 67.0368C120.202 67.629 121.007 67.629 121.51 67.4316C121.913 67.3329 123.02 66.8393 122.718 66.2471C122.316 65.5561 121.913 64.7664 121.51 63.9767Z" fill="black"/>
<path d="M5.74646 42.6544C4.2365 43.0492 2.72654 43.2467 1.21658 43.6415C0.713257 43.7402 -0.0920558 44.2338 0.00860824 44.9248C0.209936 45.6158 1.11591 45.6158 1.7199 45.5171C3.22986 45.1222 4.73982 44.9248 6.24978 44.5299C6.7531 44.4312 7.55841 43.839 7.45775 43.2467C7.15576 42.5557 6.24978 42.5557 5.74646 42.6544Z" fill="black"/>
<path d="M44.0996 39.6922C43.9989 37.0269 43.5963 34.3617 43.5963 31.6964C43.5963 29.5247 43.9989 27.2543 43.1936 25.1814C43.1936 24.9839 43.2943 24.6878 43.2943 24.4904C43.4956 23.4045 39.9724 23.9968 39.469 24.9839C39.167 25.2801 38.9657 25.5762 39.0664 25.9711C39.0664 26.0698 39.167 26.1685 39.167 26.2672C38.4624 29.426 37.5564 32.5848 36.5498 35.645C36.1471 36.8295 35.6438 38.0141 35.2411 39.1986C34.6372 38.1128 34.0332 37.0269 33.5299 35.8424C32.1206 32.3874 30.9126 28.9325 29.2013 25.6749C29.4026 24.1942 25.9801 24.2929 25.2754 25.6749C24.4701 27.353 24.5708 29.0312 24.8728 30.9067C25.1747 32.9797 25.2754 34.954 25.2754 37.0269C25.2754 40.9755 25.6781 44.924 25.6781 48.8725C25.2754 49.2674 25.1747 49.7609 25.5774 50.2545C25.7787 50.4519 25.9801 50.6494 26.1814 50.8468C27.0874 51.5378 29.7046 50.9455 29.7046 49.5635C29.7046 45.4176 29.4026 41.3703 29.302 37.2244C29.302 36.8295 29.302 36.4347 29.302 36.0398C29.4026 36.1385 29.4026 36.3359 29.5033 36.4347C30.1073 38.0141 30.8119 39.5935 31.7179 41.0742C32.6239 42.5549 33.0265 44.1343 33.5299 45.7137C33.3285 45.9111 33.2279 46.2073 33.3285 46.4047C33.3285 46.6021 33.4292 46.7008 33.6305 46.7995C34.2345 47.3918 35.5431 47.0957 36.1471 46.7995C36.4491 46.7008 36.7511 46.5034 36.9524 46.4047C37.2544 46.2073 37.8584 45.7137 37.6571 45.2201C37.6571 45.1214 37.5564 45.0227 37.5564 44.924C38.0597 43.6407 38.2611 42.3575 38.5631 40.9755C38.8651 39.5935 39.3684 38.2115 39.8717 36.8295C39.9724 37.4218 39.9724 38.1128 40.073 38.7051C40.2744 41.2716 40.073 43.7394 40.073 46.306C40.073 47.1944 40.1737 47.8854 40.2744 48.7738C40.375 49.07 40.677 50.5507 40.5763 50.6494C39.9724 51.2416 40.1737 51.9326 40.979 52.0313C41.885 52.2288 43.0929 51.9326 43.7976 51.3404C45.0056 50.2545 44.4016 48.4777 44.2003 47.0957C43.5963 44.7266 44.0996 42.0613 44.0996 39.6922Z" fill="white"/>
<path d="M52.5556 40.384C52.4549 38.4097 51.7503 36.5342 51.7503 34.5599C51.7503 32.2895 51.9516 30.0191 51.5489 27.7487C51.4483 27.0577 47.4217 27.8474 47.5224 28.8345C47.8244 30.9075 47.7237 33.0792 47.7237 35.1522C47.7237 37.2252 48.227 39.002 48.4283 41.075C48.7303 43.148 48.3277 45.2209 48.529 47.2939C48.6297 48.281 49.3343 50.0579 48.6297 50.8476C48.227 51.3412 50.1396 51.1437 50.2403 51.1437C51.0456 51.045 52.0522 50.7489 52.5556 50.1566C53.2602 49.3669 52.7569 47.7875 52.6562 46.8003C52.4549 44.5299 52.6562 42.457 52.5556 40.384Z" fill="white"/>
<path d="M69.1649 37.0275C67.051 34.2636 63.2258 36.2378 60.5078 35.4481C59.0985 35.0533 59.0985 33.1777 59.0985 32.0919C59.0985 30.7099 58.9979 29.3279 58.7965 27.9459C58.6959 26.8601 58.7965 25.8729 59.6019 25.0832C59.7025 24.9845 60.5078 24.7871 60.4072 24.7871C60.8098 24.6884 61.1118 24.6884 61.5145 24.6884C63.1251 24.5897 66.2457 24.8858 65.6417 27.1562C65.3397 28.1433 69.2656 27.5511 69.5676 26.5639C70.7756 22.0231 62.1185 22.9115 59.7025 23.5038C57.4879 24.0961 54.9713 25.3794 54.8706 27.8472C54.77 29.0318 55.1726 30.2163 55.1726 31.4009C55.2733 32.7829 54.9713 34.1649 55.4746 35.5468C56.5819 38.5082 61.1118 37.1263 63.3264 37.3237C67.2523 37.6198 66.0444 42.7529 66.145 45.2207C66.145 46.504 67.353 48.6757 66.3464 49.6628C65.7424 50.3538 64.3331 50.3538 63.5278 50.4525C62.7224 50.5512 61.3131 50.7487 60.7092 49.959C59.7025 48.577 60.8098 46.2079 60.6085 44.5297C60.4072 43.5426 56.3806 44.431 56.5819 45.5169C56.8839 48.1821 55.1726 51.6371 58.9979 52.1307C61.5145 52.4268 64.2324 51.9332 66.6483 51.2422C67.8563 50.8474 68.9636 50.2551 69.9703 49.4654C70.9769 48.577 70.6749 47.0963 70.3729 45.9117C69.6683 42.9503 71.0776 39.5941 69.1649 37.0275Z" fill="white"/>
<path d="M86.7812 36.83C86.6805 33.0789 86.0765 29.3278 86.0765 25.5767C86.0765 23.6024 82.05 24.2934 82.05 25.8729C82.05 29.4265 82.5533 32.9802 82.7546 36.6326C82.7546 36.7313 82.7546 36.7313 82.7546 36.83C80.7413 36.83 78.8287 37.0274 76.8154 37.0274C77.0168 32.3879 76.2114 27.8471 76.4128 23.2076C76.4128 22.6153 72.4869 23.1089 72.3862 24.2934C72.1849 28.7355 72.9902 33.1776 72.8895 37.6197C72.7889 39.7914 72.6882 41.8644 72.5875 44.0361C72.5875 45.1219 72.7889 46.2078 72.8895 47.2936C72.9902 48.2808 73.3928 49.6627 73.0909 50.5512C72.8895 51.3409 76.7148 50.8473 77.0168 49.8602C77.5201 48.0833 76.8154 45.8129 76.6141 44.0361C76.4128 42.358 76.6141 40.5811 76.7148 38.8043C78.728 38.7056 80.842 38.5081 82.8553 38.8043C82.9559 40.1863 83.0566 41.5683 83.1573 42.9502C83.2579 44.1348 83.3586 45.2206 83.3586 46.4052C83.3586 47.3923 83.4593 48.873 83.1573 49.8602C82.352 51.9331 86.3785 51.7357 86.9825 50.255C87.6871 48.3795 87.4858 46.1091 87.3852 44.1348C87.1838 41.7657 86.7812 39.2979 86.7812 36.83Z" fill="white"/>
<path d="M103.894 41.3711C102.988 38.6071 101.478 36.238 100.27 33.5728C101.277 31.5985 102.283 29.7229 103.29 27.7487C104.095 25.9718 104.8 23.8989 106.411 22.7143C107.015 22.2207 107.015 21.8259 106.109 21.7272C105.203 21.6285 103.995 21.9246 103.29 22.4182C101.78 23.6027 100.874 24.9847 100.069 26.6628C99.0622 28.7358 98.1562 30.7101 97.0489 32.6843C96.9482 32.783 96.8475 32.9805 96.8475 33.0792C96.3442 33.3753 96.0422 33.8689 96.2436 34.3625C95.4382 35.9419 94.6329 37.4226 93.727 39.002C93.425 33.474 92.7203 27.9461 92.519 22.4182C92.519 21.1349 88.4924 21.9246 88.4924 23.504C88.6938 30.3152 89.7004 37.1264 89.8011 44.0364C89.8011 44.0364 89.8011 44.0364 89.8011 44.1351C89.4991 44.4312 89.5997 44.6286 89.9017 44.7273C89.9017 46.5042 89.8011 48.1823 89.7004 49.9591C89.1971 50.7489 90.2037 51.045 90.8077 51.045H90.9084C91.613 51.045 93.5256 50.6501 93.6263 49.663C93.8276 47.59 93.9283 45.5171 93.8276 43.4441C95.4382 41.7659 96.7469 39.7917 97.9549 37.8174C98.7602 39.2981 99.4648 40.7788 99.9681 42.3582C100.874 45.1222 102.283 47.59 103.189 50.354C103.693 52.1308 107.719 51.045 107.216 49.2682C106.31 46.6029 104.901 44.0364 103.894 41.3711Z" fill="white"/>
<path d="M127.852 36.7316C127.651 35.9419 126.443 35.8431 125.537 35.9419C125.537 35.6457 125.537 35.2509 125.537 34.9547C125.437 32.2895 125.336 29.6242 125.135 26.959C124.933 24.4911 123.524 23.6027 121.108 23.7014C118.692 23.8001 115.773 24.195 113.457 25.0834C110.84 26.0705 109.33 28.0448 108.827 30.7101C108.223 33.6715 109.028 36.929 109.23 39.8904C109.431 43.3453 109.33 46.899 109.33 50.354C109.33 50.9463 113.357 50.354 113.357 49.2681C113.357 46.5042 113.357 43.7402 113.357 40.9762C113.357 40.1865 113.256 39.3968 113.256 38.5084C114.665 37.9161 116.981 38.5084 118.39 38.6071C119.497 38.7058 120.605 38.4097 121.712 38.311C121.712 40.5814 121.813 42.9505 121.913 45.2209C121.913 46.4055 122.417 48.7746 121.511 49.7617C121.108 50.2553 123.021 50.0578 123.121 50.0578C123.927 49.9591 124.933 49.663 125.437 48.972C126.443 47.8862 125.94 45.2209 125.839 43.8389C125.738 41.9634 125.738 39.9891 125.738 38.1135C126.745 38.311 128.054 37.5213 127.852 36.7316ZM112.954 36.5341C112.853 35.2509 112.753 34.0663 112.652 32.783C112.451 30.4139 112.753 27.2551 114.967 25.7744C115.571 25.3795 116.679 25.4783 117.383 25.3795C118.39 25.1821 119.397 24.9847 120.303 25.577C121.511 26.3667 121.209 29.2294 121.209 30.4139C121.209 32.3882 121.41 34.3624 121.511 36.4354C120.907 36.5341 120.403 36.5341 119.799 36.5341C117.484 36.4354 115.169 36.1393 112.954 36.5341Z" fill="white"/>
<path d="M49.1328 24.9843C49.6361 24.8856 50.2401 24.7869 50.6427 24.4908C50.7434 24.3921 50.8441 24.3921 50.9447 24.2933C51.4481 23.9972 51.9514 23.5036 51.6494 22.9114C51.1461 21.8255 51.2467 20.641 51.2467 19.5551C51.2467 18.568 50.2401 18.2718 49.4348 18.3705C48.7301 18.4693 47.2202 18.9628 47.2202 19.8512C47.2202 20.8384 47.1195 21.8255 47.3208 22.8126C47.3208 22.9114 47.2202 23.0101 47.2202 23.2075C47.1195 23.4049 47.2202 23.6023 47.3208 23.7998V23.8985C47.3208 23.9972 47.3208 24.0959 47.3208 24.1946C47.4215 24.3921 47.5222 24.5895 47.7235 24.6882C48.1261 24.9843 48.6295 24.9843 49.1328 24.9843Z" fill="white"/>
</symbol><symbol id="mishka-logo-mobile" viewBox="0 0 86 35">
<path d="M4.54732 26.3186C4.54732 22.8186 4.24733 19.4186 4.14733 15.9186C4.14733 15.6186 4.14733 15.2186 4.14733 14.9186C4.14733 15.0186 4.24732 15.1186 4.24732 15.3186C4.74732 16.7186 5.34732 18.0186 6.04732 19.2186C6.74732 20.4186 7.14732 21.8186 7.54732 23.1186C7.34732 23.3186 7.24733 23.5186 7.34733 23.7186C7.34733 23.9186 7.44732 23.9186 7.54732 24.0186C8.04732 24.5186 9.04733 24.2186 9.64733 24.0186C9.84733 23.9186 10.1473 23.8186 10.3473 23.6186C10.6473 23.4186 11.0473 23.0186 10.9473 22.6186C10.9473 22.5186 10.9473 22.4186 10.8473 22.4186C11.2473 21.3186 11.4473 20.2186 11.6473 19.1186C11.8473 17.9186 12.3473 16.8186 12.7473 15.6186C12.7473 16.1186 12.8473 16.6186 12.8473 17.2186C13.0473 19.3186 12.8473 21.5186 12.8473 23.6186C12.8473 24.3186 12.8473 25.0186 13.0473 25.7186C13.1473 26.0186 13.3473 27.2186 13.2473 27.3186C12.7473 27.8186 12.8473 28.4186 13.5473 28.5186C14.3473 28.7186 15.3473 28.4186 15.8473 27.9186C16.8473 27.0186 16.3473 25.5186 16.1473 24.3186C15.7473 22.3186 16.2473 20.1186 16.1473 18.1186C16.0473 15.8186 15.7473 13.6186 15.7473 11.3186C15.7473 9.51856 16.0473 7.61856 15.4473 5.81856C15.4473 5.61856 15.5473 5.41856 15.5473 5.21856C15.7473 4.31856 12.7473 4.81856 12.3473 5.61856C12.0473 5.81856 11.9473 6.11856 12.0473 6.41856C12.0473 6.51856 12.1473 6.51856 12.1473 6.61856C11.5473 9.31856 10.8473 11.9186 9.94733 14.5186C9.64733 15.5186 9.24733 16.5186 8.84733 17.5186C8.34733 16.6186 7.84733 15.6186 7.44733 14.7186C6.24733 11.8186 5.24733 8.91856 3.84733 6.11856C4.04733 4.81856 1.14732 4.91856 0.547324 6.11856C-0.152676 7.51856 -0.0526737 9.01856 0.147326 10.5186C0.447326 12.2186 0.447326 13.9186 0.447326 15.6186C0.447326 18.9186 0.747327 22.3186 0.847327 25.6186C0.547327 25.9186 0.447325 26.3186 0.747325 26.8186C0.847325 27.0186 1.04732 27.1186 1.24732 27.3186C2.44732 28.0186 4.54732 27.5186 4.54732 26.3186Z" fill="black"/>
<path d="M22.7473 7.91856C22.6473 7.31856 19.3473 8.01856 19.4473 8.81856C19.7473 10.6186 19.6473 12.4186 19.5473 14.2186C19.5473 15.9186 19.9473 17.5186 20.1473 19.2186C20.3473 20.9186 20.0473 22.7186 20.2473 24.4186C20.3473 25.2186 20.8473 26.7186 20.3473 27.4186C19.9473 27.8186 21.5473 27.7186 21.6473 27.7186C22.2473 27.6186 23.1473 27.4186 23.5473 26.8186C24.1473 26.1186 23.7473 24.8186 23.5473 24.0186C23.2473 22.3186 23.4473 20.5186 23.3473 18.7186C23.2473 17.0186 22.7473 15.4186 22.6473 13.8186C22.9473 11.8186 23.0473 9.91856 22.7473 7.91856Z" fill="black"/>
<path d="M25.9473 14.6186C26.8473 17.1186 30.5473 15.9186 32.5473 16.1186C35.7473 16.3186 34.8473 20.7186 34.8473 22.7186C34.8473 23.8186 35.8473 25.6186 35.0473 26.5186C34.5473 27.1186 33.3473 27.1186 32.6473 27.1186C31.9473 27.2186 30.7473 27.4186 30.3473 26.7186C29.5473 25.5186 30.4473 23.5186 30.2473 22.1186C30.1473 21.3186 26.8473 22.0186 26.9473 23.0186C27.2473 25.2186 25.7473 28.2186 28.9473 28.6186C31.0473 28.8186 33.3473 28.5186 35.2473 27.8186C36.2473 27.5186 37.1473 27.0186 37.9473 26.3186C38.8473 25.5186 38.5473 24.3186 38.3473 23.3186C37.7473 20.8186 38.9473 18.0186 37.3473 15.8186C35.6473 13.5186 32.3473 15.1186 30.1473 14.5186C28.9473 14.3186 28.9473 12.7186 28.9473 11.7186C28.9473 10.5186 28.8473 9.41856 28.7473 8.21856C28.6473 7.31856 28.7473 6.41856 29.3473 5.81856C29.4473 5.71856 30.0473 5.51856 30.0473 5.51856C30.3473 5.41856 30.6473 5.41856 30.9473 5.41856C32.2473 5.31856 34.8473 5.61856 34.3473 7.51856C34.1473 8.41856 37.3473 7.91856 37.6473 7.01856C38.6473 3.11856 31.5473 3.91856 29.4473 4.41856C27.5473 4.91856 25.5473 6.01856 25.4473 8.11856C25.3473 9.11856 25.6473 10.1186 25.7473 11.1186C25.7473 12.3186 25.4473 13.5186 25.9473 14.6186Z" fill="black"/>
<path d="M40.3473 16.5186C40.2473 18.3186 40.1473 20.1186 40.1473 21.9186C40.1473 22.8186 40.2473 23.7186 40.4473 24.7186C40.5473 25.5186 40.8473 26.7186 40.6473 27.5186C40.4473 28.1186 43.6473 27.7186 43.9473 26.9186C44.4473 25.4186 43.7473 23.5186 43.6473 22.0186C43.5473 20.5186 43.6473 19.1186 43.7473 17.6186C45.4473 17.5186 47.1473 17.4186 48.8473 17.6186C48.9473 18.8186 49.0473 19.9186 49.1473 21.1186C49.2473 22.1186 49.3473 23.0186 49.3473 24.0186C49.3473 24.9186 49.4473 26.1186 49.1473 26.9186C48.4473 28.6186 51.8473 28.5186 52.2473 27.2186C52.8473 25.6186 52.6473 23.7186 52.5473 22.0186C52.2473 19.8186 51.9473 17.8186 51.9473 15.7186C51.8473 12.5186 51.3473 9.41856 51.3473 6.21856C51.3473 4.51856 48.0473 5.11856 48.0473 6.51856C48.0473 9.51856 48.4473 12.5186 48.6473 15.6186C48.6473 15.7186 48.6473 15.7186 48.6473 15.8186C47.0473 15.8186 45.3473 15.9186 43.7473 16.0186C43.9473 12.1186 43.2473 8.21856 43.3473 4.31856C43.3473 3.81856 40.0473 4.21856 40.0473 5.21856C39.8473 9.01856 40.4473 12.7186 40.3473 16.5186Z" fill="black"/>
<path d="M54.4473 21.8186C54.1473 22.1186 54.2473 22.2186 54.4473 22.3186C54.4473 23.8186 54.4473 25.2186 54.2473 26.7186C53.8473 27.3186 54.6473 27.7186 55.1473 27.7186H55.2473C55.8473 27.7186 57.4473 27.4186 57.5473 26.6186C57.7473 24.8186 57.7473 23.1186 57.7473 21.3186C59.0473 19.9186 60.1473 18.2186 61.1473 16.6186C61.7473 17.8186 62.3473 19.1186 62.8473 20.5186C63.5473 22.8186 64.7473 24.9186 65.4473 27.3186C65.9473 28.8186 69.2473 27.9186 68.7473 26.4186C68.0473 24.1186 66.8473 21.9186 66.1473 19.6186C65.3473 17.3186 64.1473 15.2186 63.1473 13.0186C63.9473 11.4186 64.8473 9.71856 65.6473 8.01856C66.3473 6.51856 66.8473 4.81856 68.2473 3.71856C68.7473 3.31856 68.7473 2.91856 68.0473 2.91856C67.3473 2.81856 66.3473 3.11856 65.7473 3.51856C64.4473 4.51856 63.7473 5.71856 63.0473 7.11856C62.2473 8.81856 61.4473 10.5186 60.5473 12.2186C60.4473 12.3186 60.4473 12.4186 60.3473 12.6186C59.9473 12.9186 59.6473 13.2186 59.8473 13.7186C59.1473 15.0186 58.5473 16.3186 57.7473 17.6186C57.4473 12.9186 56.9473 8.31856 56.7473 3.61856C56.7473 2.51856 53.4473 3.21856 53.4473 4.51856C53.6473 10.2186 54.4473 16.0186 54.4473 21.8186Z" fill="black"/>
<path d="M85.9473 15.6186C85.7473 14.9186 84.7473 14.9186 84.0473 15.0186C84.0473 14.7186 84.0473 14.4186 84.0473 14.2186C83.9473 12.0186 83.9473 9.71856 83.7473 7.41856C83.5473 5.31856 82.4473 4.61856 80.4473 4.71856C78.4473 4.81856 76.0473 5.11856 74.1473 5.91856C71.9473 6.81856 70.7473 8.41856 70.3473 10.7186C69.8473 13.2186 70.5473 15.9186 70.6473 18.5186C70.7473 21.5186 70.7473 24.4186 70.7473 27.4186C70.7473 27.9186 74.0473 27.4186 74.0473 26.5186C74.0473 24.2186 74.0473 21.8186 74.0473 19.5186C74.0473 18.8186 74.0473 18.1186 73.9473 17.4186C75.1473 16.9186 77.0473 17.4186 78.2473 17.5186C79.1473 17.6186 80.0473 17.4186 80.9473 17.3186C80.9473 19.2186 81.0473 21.2186 81.1473 23.2186C81.1473 24.2186 81.5473 26.2186 80.8473 27.0186C80.4473 27.4186 82.0473 27.3186 82.1473 27.3186C82.8473 27.2186 83.6473 27.0186 84.0473 26.4186C84.8473 25.5186 84.4473 23.2186 84.3473 22.1186C84.2473 20.5186 84.2473 18.9186 84.2473 17.3186C85.0473 16.9186 86.1473 16.3186 85.9473 15.6186ZM79.3473 15.4186C77.4473 15.4186 75.5473 15.1186 73.6473 15.4186C73.5473 14.3186 73.4473 13.3186 73.3473 12.2186C73.2473 10.2186 73.4473 7.51856 75.2473 6.31856C75.7473 6.01856 76.6473 6.01856 77.2473 5.91856C78.0473 5.81856 78.8473 5.61856 79.6473 6.11856C80.6473 6.81856 80.4473 9.21856 80.4473 10.2186C80.4473 11.9186 80.6473 13.6186 80.7473 15.3186C80.2473 15.4186 79.7473 15.4186 79.3473 15.4186Z" fill="black"/>
<path d="M19.1473 4.11856C19.1473 4.31856 19.1473 4.51856 19.2473 4.61856V4.71856C19.2473 4.81856 19.2473 4.91856 19.2473 5.01856C19.3473 5.21856 19.4473 5.31856 19.6473 5.41856C19.9473 5.61856 20.3473 5.61856 20.7473 5.61856C21.1473 5.61856 21.6473 5.41856 21.9473 5.21856C22.0473 5.11856 22.0473 5.11856 22.1473 5.01856C22.5473 4.71856 22.9473 4.31856 22.7473 3.91856C22.3473 3.01856 22.3473 2.01856 22.4473 1.01856C22.4473 0.218559 21.6473 -0.0814409 20.9473 0.0185591C20.3473 0.118559 19.1473 0.518558 19.1473 1.31856C19.1473 2.11856 19.0473 3.01856 19.2473 3.81856C19.1473 3.91856 19.1473 4.01856 19.1473 4.11856Z" fill="black"/>
<path d="M80.6473 33.3186C79.0473 32.7186 77.3473 32.7186 75.7473 32.5186C74.1473 32.3186 72.5473 32.1186 70.8473 31.9186C69.2473 32.0186 67.5473 31.9186 65.8473 32.0186L60.9473 32.3186C54.4473 32.6186 47.9473 32.6186 41.4473 32.4186C34.9473 32.3186 28.4473 31.9186 21.8473 31.9186C18.5473 31.9186 15.2473 32.0186 11.9473 32.2186C10.3473 32.5186 8.74733 32.7186 7.04733 33.1186C5.44733 33.5186 3.94733 34.0186 2.24733 34.1186C3.84733 34.5186 5.54733 34.4186 7.24733 34.4186C8.84733 34.4186 10.4473 34.5186 12.1473 34.6186C15.3473 34.4186 18.6473 34.4186 21.8473 34.3186C28.3473 34.3186 34.8473 34.6186 41.4473 34.8186C47.9473 34.9186 54.5473 35.0186 61.1473 34.7186L66.0473 34.4186C67.6473 34.3186 69.2473 34.3186 70.8473 34.3186C72.4473 34.2186 74.1473 34.0186 75.7473 33.8186C77.4473 33.6186 78.9473 33.2186 80.6473 33.3186H80.7473V33.2186C80.7473 33.0186 80.7473 32.9186 80.7473 32.7186C80.7473 33.1186 80.7473 33.2186 80.6473 33.3186Z" fill="black"/>
</symbol><symbol id="mishka-logo-tablet" viewBox="0 0 114 46">
<path d="M110.889 41.8087C115.312 42.7068 111.693 5.98661 110.989 3.59182C108.979 -2.99387 84.1469 1.49637 78.6176 1.8955C65.8498 2.89333 53.283 0.897673 40.8169 1.49637C34.5838 1.79572 5.73056 -0.299724 3.11668 3.49203C-1.91001 10.6764 0.402269 29.2361 1.80974 38.5159C-2.21161 39.3142 4.12202 42.7068 4.92629 43.4053C11.2599 45.6005 21.4138 43.2057 28.0491 43.8044C43.5313 45.3011 60.0188 41.6092 75.6015 42.8066C80.1256 43.9042 85.2528 43.8044 89.8773 44.004C93.396 49.5918 109.682 41.6092 110.889 41.8087C110.788 41.8087 111.392 41.9085 110.889 41.8087Z" fill="black"/>
<path d="M26.2395 24.3475C26.139 21.853 25.7368 19.2586 25.7368 16.764C25.7368 14.6686 26.139 12.5731 25.4352 10.5775C25.4352 10.3779 25.5358 10.1783 25.5358 9.879C25.7368 8.88117 22.4192 9.38008 21.9165 10.2781C21.6149 10.5775 21.4139 10.8768 21.5144 11.1762C21.5144 11.276 21.6149 11.3757 21.6149 11.3757C21.0117 14.3692 20.1069 17.3627 19.1016 20.2564C18.6995 21.3541 18.2973 22.4517 17.8952 23.6491C17.292 22.6512 16.7893 21.5536 16.2866 20.456C14.9797 17.1632 13.7733 13.8703 12.1648 10.777C12.3658 9.2803 9.14875 9.47986 8.44501 10.777C7.64074 12.3736 7.74127 13.9701 8.04287 15.6664C8.34448 17.5623 8.34447 19.4582 8.44501 21.4538C8.44501 25.2456 8.74661 28.9376 8.84714 32.7293C8.54554 33.1285 8.44501 33.5276 8.74661 34.0265C8.94768 34.2261 9.04821 34.4256 9.24928 34.5254C10.1541 35.2239 12.5669 34.6252 12.5669 33.328C12.5669 29.4365 12.2653 25.5449 12.1648 21.6534C12.1648 21.2543 12.1648 20.8551 12.1648 20.5558C12.2653 20.6556 12.2653 20.8551 12.3658 20.9549C12.969 22.4517 13.5722 23.9484 14.477 25.3454C15.2813 26.7423 15.6834 28.2391 16.1861 29.7358C15.985 29.9354 15.8845 30.135 15.985 30.4343C15.985 30.6339 16.0856 30.7337 16.1861 30.7337C16.7893 31.2326 17.8952 31.033 18.5989 30.7337C18.9005 30.6339 19.1016 30.5341 19.4032 30.3345C19.7048 30.135 20.2075 29.7358 20.1069 29.2369C20.1069 29.1371 20.0064 29.0373 20.0064 28.9376C20.4085 27.7402 20.7101 26.443 20.9112 25.2456C21.2128 23.8486 21.6149 22.6512 22.1176 21.3541C22.1176 21.9528 22.2181 22.5514 22.2181 23.1501C22.4192 25.5449 22.2181 27.9397 22.2181 30.3345C22.2181 31.1328 22.3187 31.8313 22.4192 32.6295C22.5197 32.9289 22.7208 34.3259 22.7208 34.4256C22.1176 34.9246 22.3187 35.623 23.1229 35.8226C24.0277 36.0222 25.1336 35.7228 25.7368 35.1241C26.8427 34.1263 26.34 32.43 26.0384 31.1328C25.7368 29.1371 26.34 26.6426 26.2395 24.3475Z" fill="white"/>
<path d="M34.1817 25.046C34.0811 23.1501 33.4779 21.3541 33.4779 19.4582C33.4779 17.2629 33.679 15.0677 33.3774 12.9723C33.2769 12.2738 29.5571 13.0721 29.6576 13.9701C29.9592 15.9658 29.8587 17.9614 29.8587 19.9571C29.8587 21.853 30.2608 23.6491 30.5624 25.5449C30.864 27.5406 30.4619 29.4365 30.663 31.4321C30.7635 32.3302 31.3667 34.0265 30.7635 34.8248C30.3614 35.3237 32.171 35.1241 32.2715 35.1241C32.9753 35.0243 33.9806 34.725 34.4833 34.1263C35.0865 33.328 34.6843 31.8313 34.5838 30.9332C34.0811 29.0373 34.2822 26.9419 34.1817 25.046Z" fill="white"/>
<path d="M49.7644 21.853C47.7537 19.2586 44.1345 21.1545 41.6212 20.3562C40.3142 19.9571 40.3142 18.161 40.3142 17.1632C40.3142 15.7662 40.2137 14.5688 40.0126 13.2716C39.9121 12.2738 40.0126 11.276 40.7164 10.4777C40.8169 10.3779 41.5206 10.1783 41.5206 10.1783C41.8222 10.0786 42.1238 10.0786 42.526 10.0786C44.034 9.97878 46.9494 10.2781 46.3462 12.4734C46.0446 13.4712 49.7644 12.8725 50.066 11.8747C51.2724 7.4842 43.1292 8.38225 40.8169 8.98095C38.7057 9.57965 36.3934 10.777 36.2929 13.1718C36.1923 14.3692 36.5945 15.4669 36.5945 16.5645C36.695 17.8616 36.3934 19.1588 36.8961 20.456C37.9014 23.2499 42.1238 21.9528 44.3356 22.1523C47.9548 22.4517 46.9495 27.341 46.9495 29.636C46.9495 30.8334 48.0553 32.9289 47.1505 33.9267C46.5473 34.5254 45.2404 34.6252 44.5366 34.6252C43.7324 34.725 42.4254 34.9246 41.9228 34.2261C41.018 32.9289 42.0233 30.6339 41.8222 29.1371C41.7217 28.2391 37.9014 29.0373 38.1025 30.135C38.4041 32.6295 36.7955 35.9224 40.4148 36.4213C42.727 36.7206 45.3409 36.2217 47.5527 35.5232C48.6585 35.1241 49.7644 34.6252 50.6692 33.8269C51.6745 32.9289 51.3729 31.6317 51.0713 30.4343C50.2671 27.4408 51.574 24.2478 49.7644 21.853Z" fill="white"/>
<path d="M66.3525 21.6534C66.252 18.0612 65.6488 14.5688 65.6488 10.9766C65.6488 9.08073 61.8285 9.77921 61.8285 11.276C61.8285 14.6686 62.3311 18.0612 62.4317 21.4538C62.4317 21.5536 62.4317 21.5536 62.4317 21.6534C60.6221 21.6534 58.7119 21.853 56.8018 21.853C57.0028 17.4625 56.1986 13.0721 56.3996 8.78138C56.3996 8.18268 52.6799 8.6816 52.6799 9.77921C52.4788 13.9701 53.2831 18.2608 53.082 22.4517C52.9815 24.4473 52.881 26.443 52.881 28.5384C52.881 29.5363 53.082 30.6339 53.1826 31.6317C53.2831 32.5298 53.6852 33.8269 53.3836 34.725C53.1826 35.4235 56.8018 35.0243 57.1034 34.0265C57.606 32.3302 56.9023 30.2347 56.7012 28.5384C56.5002 26.9419 56.7012 25.2456 56.8018 23.5493C58.7119 23.4495 60.7226 23.2499 62.6327 23.5493C62.7333 24.8465 62.8338 26.1436 62.9343 27.4408C63.0349 28.5384 63.1354 29.636 63.1354 30.7337C63.1354 31.7315 63.2359 33.1285 62.9343 34.0265C62.2306 36.0222 65.9503 35.8226 66.453 34.3259C67.1568 32.5298 66.9557 30.3345 66.8552 28.5384C66.7546 26.3432 66.3525 23.9484 66.3525 21.6534Z" fill="white"/>
<path d="M82.4378 25.9441C81.533 23.3497 80.1256 21.0547 79.0197 18.5601C80.025 16.6642 80.9298 14.8682 81.8346 12.9723C82.6389 11.276 83.2421 9.38008 84.7501 8.18269C85.2528 7.78355 85.2528 7.38442 84.5491 7.28464C83.7448 7.18485 82.5384 7.4842 81.9352 7.98312C80.5277 9.08073 79.6229 10.3779 78.9192 12.0742C78.0144 13.9701 77.1096 15.9658 76.1042 17.8616C76.0037 17.9614 76.0037 18.161 75.9032 18.2608C75.4005 18.5601 75.1994 18.9593 75.3 19.4582C74.4957 20.9549 73.7919 22.4517 72.8871 23.8486C72.5855 18.5601 71.9823 13.3714 71.7813 8.0829C71.7813 6.88551 67.961 7.58399 68.0615 9.08073C68.2626 15.5666 69.2679 22.0525 69.2679 28.5384C68.9663 28.8378 69.0669 29.0374 69.3685 29.1371C69.3685 30.8334 69.2679 32.43 69.1674 34.1263C68.7653 34.8248 69.5695 35.2239 70.1727 35.2239H70.2733C70.977 35.2239 72.7866 34.9246 72.8871 33.9267C73.0882 31.9311 73.0882 29.9354 73.0882 27.9397C74.5962 26.3432 75.8026 24.5471 76.9085 22.6512C77.6122 24.0482 78.316 25.4452 78.8186 26.9419C79.6229 29.5363 81.0304 31.9311 81.8346 34.5254C82.3373 36.2217 86.0571 35.2239 85.5544 33.5276C84.6496 30.9332 83.3427 28.5384 82.4378 25.9441Z" fill="white"/>
<path d="M104.857 21.5536C104.656 20.7554 103.55 20.7554 102.645 20.8551C102.645 20.5558 102.645 20.2564 102.645 19.8573C102.545 17.3627 102.444 14.7684 102.243 12.2738C102.042 9.97878 100.735 9.08073 98.4228 9.18052C96.1105 9.2803 93.3961 9.67943 91.2849 10.4777C88.7716 11.4755 87.3641 13.2716 86.962 15.866C86.4593 18.7597 87.163 21.7532 87.3641 24.6469C87.4646 27.9397 87.4646 31.3324 87.4646 34.6252C87.4646 35.1241 91.1844 34.6252 91.1844 33.6274C91.1844 31.033 91.1844 28.3389 91.1844 25.7445C91.1844 24.9462 91.1844 24.2478 91.0839 23.4495C92.3908 22.8508 94.6025 23.4495 95.9095 23.5493C97.0153 23.6491 98.0207 23.3497 99.026 23.2499C99.026 25.4452 99.1266 27.6404 99.2271 29.8356C99.2271 30.9332 99.7298 33.2282 98.9255 34.1263C98.5234 34.6252 100.333 34.4256 100.433 34.4256C101.238 34.3259 102.143 34.0265 102.645 33.4278C103.55 32.3302 103.047 29.8356 103.047 28.5384C102.947 26.7423 102.947 24.9462 102.947 23.1501C103.852 23.0504 105.058 22.3519 104.857 21.5536ZM90.9833 21.3541C90.8828 20.1567 90.7823 18.9593 90.6817 17.7619C90.4807 15.5666 90.7823 12.4734 92.8935 11.1762C93.4967 10.777 94.502 10.8768 95.1052 10.777C96.01 10.5775 97.0153 10.3779 97.8196 10.9766C98.9255 11.7749 98.7244 14.469 98.7244 15.5666C98.7244 17.4625 98.9255 19.3584 99.026 21.2543C98.5234 21.3541 97.9202 21.3541 97.4175 21.3541C95.2057 21.2543 92.994 20.9549 90.9833 21.3541Z" fill="white"/>
<path d="M30.9646 10.3779C31.4673 10.3779 31.9699 10.1783 32.3721 9.879C32.4726 9.77921 32.5731 9.77922 32.5731 9.67943C33.0758 9.38008 33.4779 8.88117 33.2769 8.38225C32.7742 7.38442 32.8747 6.28681 32.8747 5.18919C32.8747 4.29115 31.9699 3.9918 31.1657 4.09158C30.4619 4.19136 29.0545 4.69028 29.0545 5.48854C29.0545 6.38659 28.9539 7.38442 29.155 8.28247C29.155 8.38225 29.0545 8.48204 29.0545 8.58182C28.9539 8.78138 29.0545 8.98095 29.155 9.18052V9.2803C29.155 9.38008 29.155 9.47987 29.155 9.57965C29.2555 9.77922 29.3561 9.97878 29.5571 10.0786C30.0598 10.3779 30.5625 10.3779 30.9646 10.3779Z" fill="white"/>
</symbol><symbol id="play-button-down" viewBox="0 0 81 62">
<g opacity="0.3">
<path d="M78.0208 14.612C78.0208 14.612 77.2961 8.96095 74.9612 6.45835C72.0625 3.22918 68.7614 3.14844 67.312 2.98698C56.6033 2.17969 40.4999 2.17969 40.4999 2.17969H40.4194C40.4194 2.17969 24.316 2.17969 13.6073 2.98698C12.0775 3.14844 8.85679 3.22918 5.95818 6.45835C3.70371 8.96095 2.89854 14.612 2.89854 14.612C2.89854 14.612 2.17389 21.2318 2.17389 27.8516V34.0677C2.17389 40.6875 2.89854 47.3073 2.89854 47.3073C2.89854 47.3073 3.62319 52.9583 5.95818 55.4609C8.85679 58.6901 12.7216 58.6094 14.4124 58.9323C20.5317 59.5781 40.4999 59.7396 40.4999 59.7396C40.4999 59.7396 56.6033 59.7396 67.312 58.9323C68.8419 58.7709 72.0625 58.6901 74.9612 55.4609C77.2156 52.9583 78.0208 47.3073 78.0208 47.3073C78.0208 47.3073 78.7455 40.6875 78.7455 34.0677V27.8516C78.7455 21.2318 78.0208 14.612 78.0208 14.612Z" fill="#63D1BB"/>
<path d="M40.4195 62C39.6143 62 20.2903 61.7578 14.171 61.1927H14.0905H14.0099C13.7684 61.112 13.4463 61.112 13.1243 61.0313C11.1113 60.7891 7.32704 60.3047 4.42843 56.9948C1.69085 54.0886 0.885686 48.2761 0.805169 47.6302C0.805169 47.388 0 40.7682 0 34.1484V27.9323C0 21.2318 0.724659 14.6927 0.724659 14.4505V14.3698C0.805176 13.724 1.69086 7.99217 4.34792 5.00519C7.5686 1.45311 11.1919 1.04948 12.9632 0.888026C13.1243 0.888026 13.2853 0.888021 13.3658 0.807292H13.4463C24.1551 0 40.2585 0 40.4195 0H40.5C40.661 0 56.7644 0 67.4732 0.807292H67.5537C67.7147 0.807292 67.7952 0.807297 67.9563 0.888026C69.7276 1.04948 73.3509 1.45311 76.5716 5.00519C79.3091 7.91144 80.1143 13.724 80.1948 14.3698C80.1948 14.612 81 21.2318 81 27.9323V34.1484C81 40.849 80.2753 47.388 80.1948 47.6302V47.7109C80.1143 48.3568 79.2286 54.1693 76.5716 57.0755C73.3509 60.6276 69.7276 61.0312 67.9563 61.1927C67.7952 61.1927 67.6342 61.1927 67.5537 61.2734H67.4732C56.7644 62 40.5805 62 40.4195 62ZM14.7346 56.8333C20.7734 57.3984 39.8559 57.6406 40.5 57.6406C41.0636 57.6406 56.6839 57.6406 67.0706 56.8333C67.2316 56.8333 67.3926 56.8333 67.5537 56.7526C69.003 56.5911 71.2575 56.349 73.3509 54.0886C74.8002 52.474 75.6859 48.5182 75.8469 47.1458C75.9274 46.7422 76.5716 40.3646 76.5716 34.1484V27.9323C76.5716 21.6354 75.8469 15.3385 75.7664 14.9349C75.5248 12.9974 74.6392 9.44531 73.2704 8.07292C71.1769 5.73177 68.9225 5.5703 67.4732 5.40884C67.3121 5.40884 67.1511 5.40886 66.9901 5.32813C56.4424 4.52084 40.5805 4.52084 40.4195 4.52084H40.339C40.1779 4.52084 24.2356 4.52084 13.7684 5.32813C13.6074 5.32813 13.4463 5.32811 13.2853 5.40884C11.836 5.5703 9.58152 5.8125 7.48809 8.07292C6.03878 9.6875 5.15309 13.6432 4.99206 15.0156C4.91154 15.5 4.2674 21.7969 4.2674 28.013V34.2292C4.2674 40.4453 4.99206 46.8229 4.99206 47.2266C5.23361 49.1641 6.1193 52.7162 7.48809 54.0886C9.33997 56.1875 11.7555 56.5104 13.5269 56.7526C14.01 56.6719 14.332 56.7526 14.7346 56.8333Z" fill="white"/>
<path d="M30.8378 16.5498V45.3701L54.8318 31.0003L30.8378 16.5498Z" fill="white"/>
</g>
</symbol><symbol id="play-button-hover" viewBox="0 0 121 92">
<path d="M116.55 21.6823C116.55 21.6823 115.467 13.2969 111.979 9.58336C107.649 4.79169 102.718 4.67188 100.553 4.43229C84.5556 3.23438 60.5 3.23438 60.5 3.23438H60.3797C60.3797 3.23438 36.324 3.23438 20.327 4.43229C18.0417 4.67188 13.2306 4.79169 8.90054 9.58336C5.53275 13.2969 4.32996 21.6823 4.32996 21.6823C4.32996 21.6823 3.24747 31.5052 3.24747 41.3282V50.5521C3.24747 60.375 4.32996 70.198 4.32996 70.198C4.32996 70.198 5.41247 78.5833 8.90054 82.2969C13.2306 87.0886 19.0039 86.9688 21.5298 87.448C30.6709 88.4063 60.5 88.6459 60.5 88.6459C60.5 88.6459 84.5556 88.6459 100.553 87.448C102.838 87.2084 107.649 87.0886 111.979 82.2969C115.347 78.5833 116.55 70.198 116.55 70.198C116.55 70.198 117.632 60.375 117.632 50.5521V41.3282C117.632 31.5052 116.55 21.6823 116.55 21.6823Z" fill="#63D1BB"/>
<path d="M60.3797 92C59.1769 92 30.3101 91.6406 21.169 90.8021H21.0487H20.9284C20.5676 90.6823 20.0865 90.6823 19.6054 90.5625C16.5984 90.2031 10.9453 89.4844 6.61531 84.5729C2.52584 80.2604 1.32306 71.6354 1.20278 70.6771C1.20278 70.3177 0 60.4948 0 50.6719V41.4479C0 31.5052 1.08252 21.8021 1.08252 21.4427V21.3229C1.20279 20.3646 2.52586 11.8594 6.49504 7.42706C11.3062 2.15623 16.7187 1.5573 19.3648 1.31772C19.6054 1.31772 19.8459 1.31771 19.9662 1.19792H20.0865C36.0835 0 60.1392 0 60.3797 0H60.5C60.7406 0 84.7962 0 100.793 1.19792H100.914C101.154 1.19792 101.274 1.19792 101.515 1.31772C104.161 1.5573 109.574 2.15623 114.385 7.42706C118.474 11.7396 119.677 20.3646 119.797 21.3229C119.797 21.6823 121 31.5052 121 41.4479V50.6719C121 60.6146 119.917 70.3177 119.797 70.6771V70.7969C119.677 71.7552 118.354 80.3802 114.385 84.6927C109.574 89.9635 104.161 90.5625 101.515 90.8021C101.274 90.8021 101.034 90.8021 100.914 90.9219H100.793C84.7962 92 60.6203 92 60.3797 92ZM22.011 84.3333C31.0318 85.1719 59.5378 85.5313 60.5 85.5313C61.342 85.5313 84.676 85.5313 100.192 84.3333C100.432 84.3333 100.673 84.3333 100.914 84.2135C103.079 83.974 106.446 83.6146 109.574 80.2604C111.739 77.8646 113.062 71.9948 113.302 69.9583C113.422 69.3594 114.385 59.8958 114.385 50.6719V41.4479C114.385 32.1042 113.302 22.7604 113.182 22.1615C112.821 19.2865 111.498 14.0156 109.453 11.9792C106.326 8.50521 102.958 8.2656 100.793 8.02602C100.553 8.02602 100.312 8.02605 100.072 7.90626C84.3151 6.70834 60.6203 6.70834 60.3797 6.70834H60.2594C60.0189 6.70834 36.2038 6.70834 20.5676 7.90626C20.327 7.90626 20.0865 7.90623 19.8459 8.02602C17.6809 8.2656 14.3131 8.625 11.1859 11.9792C9.0209 14.375 7.69783 20.2448 7.45727 22.2813C7.33699 23 6.37475 32.3437 6.37475 41.5677V50.7917C6.37475 60.0156 7.45727 69.4792 7.45727 70.0781C7.81811 72.9531 9.14117 78.224 11.1859 80.2604C13.9523 83.375 17.5607 83.8542 20.2068 84.2135C20.9284 84.0938 21.4096 84.2135 22.011 84.3333Z" fill="white"/>
<path d="M46.0664 24.5571V67.3227L81.9093 45.9998L46.0664 24.5571Z" fill="white"/>
</symbol><symbol id="play-button" viewBox="0 0 101 77">
<path d="M97.2852 18.1472C97.2852 18.1472 96.3817 11.1289 93.4701 8.02085C89.8558 4.01044 85.7395 3.91016 83.9324 3.70964C70.5795 2.70703 50.5 2.70703 50.5 2.70703H50.3996C50.3996 2.70703 30.32 2.70703 16.9671 3.70964C15.0596 3.91016 11.0437 4.01044 7.42938 8.02085C4.61824 11.1289 3.61427 18.1472 3.61427 18.1472C3.61427 18.1472 2.71069 26.3685 2.71069 34.5899V42.3099C2.71069 50.5313 3.61427 58.7526 3.61427 58.7526C3.61427 58.7526 4.51785 65.7708 7.42938 68.8789C11.0437 72.8893 15.8628 72.7891 17.9711 73.1901C25.6013 73.9922 50.5 74.1927 50.5 74.1927C50.5 74.1927 70.5795 74.1927 83.9324 73.1901C85.8399 72.9896 89.8558 72.8893 93.4701 68.8789C96.2813 65.7708 97.2852 58.7526 97.2852 58.7526C97.2852 58.7526 98.1888 50.5313 98.1888 42.3099V34.5899C98.1888 26.3685 97.2852 18.1472 97.2852 18.1472Z" fill="#63D1BB"/>
<path d="M50.3996 77C49.3956 77 25.3002 76.6992 17.67 75.9974H17.5696H17.4692C17.168 75.8971 16.7664 75.8972 16.3648 75.7969C13.8549 75.4961 9.13618 74.8946 5.52187 70.7839C2.10835 67.1745 1.10437 59.9557 1.00398 59.1537C1.00398 58.8529 0 50.6315 0 42.4102V34.6901C0 26.3685 0.903588 18.2474 0.903588 17.9466V17.8463C1.00399 17.0443 2.10836 9.92577 5.42148 6.21613C9.43738 1.80467 13.9553 1.30339 16.164 1.10287C16.3648 1.10287 16.5656 1.10286 16.666 1.0026H16.7664C30.1193 0 50.1988 0 50.3996 0H50.5C50.7008 0 70.7803 0 84.1332 1.0026H84.2336C84.4344 1.0026 84.5348 1.00261 84.7356 1.10287C86.9443 1.30339 91.4622 1.80467 95.4781 6.21613C98.8917 9.8255 99.8956 17.0443 99.996 17.8463C99.996 18.1471 101 26.3685 101 34.6901V42.4102C101 50.7318 100.096 58.8529 99.996 59.1537V59.2539C99.8956 60.056 98.7913 67.2747 95.4781 70.8841C91.4622 75.2956 86.9443 75.7969 84.7356 75.9974C84.5348 75.9974 84.334 75.9974 84.2336 76.0977H84.1332C70.7803 77 50.6004 77 50.3996 77ZM18.3728 70.5833C25.9026 71.2852 49.6968 71.5859 50.5 71.5859C51.2028 71.5859 70.6799 71.5859 83.6312 70.5833C83.832 70.5833 84.0328 70.5833 84.2336 70.4831C86.0407 70.2826 88.8519 69.9818 91.4622 67.1745C93.2694 65.1693 94.3738 60.2565 94.5746 58.5521C94.675 58.0508 95.4781 50.1302 95.4781 42.4102V34.6901C95.4781 26.8698 94.5746 19.0495 94.4742 18.5482C94.173 16.1419 93.0686 11.7305 91.3618 10.026C88.7515 7.11849 85.9404 6.91795 84.1332 6.71743C83.9324 6.71743 83.7316 6.71746 83.5308 6.6172C70.3787 5.61459 50.6004 5.61459 50.3996 5.61459H50.2992C50.0984 5.61459 30.2197 5.61459 17.168 6.6172C16.9672 6.6172 16.7664 6.61717 16.5656 6.71743C14.7584 6.91795 11.9473 7.21875 9.337 10.026C7.52984 12.0313 6.42546 16.944 6.22466 18.6484C6.12427 19.25 5.32108 27.0703 5.32108 34.7904V42.5104C5.32108 50.2305 6.22466 58.1511 6.22466 58.6524C6.52586 61.0586 7.63024 65.4701 9.337 67.1745C11.6461 69.7813 14.6581 70.1823 16.8668 70.4831C17.4692 70.3828 17.8708 70.4831 18.3728 70.5833Z" fill="white"/>
<path d="M38.4521 20.5532V56.3462L68.3706 38.4998L38.4521 20.5532Z" fill="white"/>
</symbol><symbol id="search" viewBox="0 0 18 18">
<path opacity="0.2" d="M17.6932 16.0568L14.2159 12.5795C15.2386 11.25 15.75 9.61364 15.75 7.875C15.75 3.47727 12.2727 0 7.875 0C3.47727 0 0 3.47727 0 7.875C0 12.2727 3.47727 15.75 7.875 15.75C9.61364 15.75 11.25 15.1364 12.5795 14.2159L16.0568 17.6932C16.2614 17.8977 16.4659 18 16.875 18C17.4886 18 18 17.4886 18 16.875C18 16.6705 17.8977 16.3636 17.6932 16.0568ZM2.25 7.875C2.25 4.80682 4.80682 2.25 7.875 2.25C10.9432 2.25 13.5 4.80682 13.5 7.875C13.5 10.9432 10.9432 13.5 7.875 13.5C4.80682 13.5 2.25 10.9432 2.25 7.875Z" fill="black"/>
</symbol><symbol id="social-facebook" viewBox="0 0 15 28">
<path d="M11.7035 5.25484C12.7024 5.25484 13.7014 5.25484 14.4006 4.95313C14.8002 4.14856 15 3.04228 15 1.936C14.8002 1.936 14.9001 1.63428 14.8002 1.53371C14.8002 1.33257 14.5005 1.33257 14.5005 1.13142C14.2009 0.930282 14.0011 0.729141 13.8013 0.527999C13.102 0.326857 12.4028 0.226286 11.6036 0.0251435C10.8045 0.0251435 9.70565 -0.0754291 9.00639 0.125713C6.40916 0.125713 5.01066 1.232 3.71204 2.53942C3.71204 2.63999 3.71204 2.74056 3.61215 2.74056C3.01278 4.3497 3.51225 6.36112 3.41236 8.37254C3.51225 8.77483 3.51225 9.37826 3.61215 9.78054C2.61321 10.0823 1.41449 10.1828 0.21577 10.2834C-0.08391 10.5851 0.0159827 11.3897 0.0159827 11.9931C0.115876 12.5965 0.315665 13.0994 0.415558 13.6022C0.615345 13.8034 1.01492 14.0045 1.2147 14.1051C1.3146 14.1051 1.3146 14.2057 1.3146 14.2057C1.81406 14.5074 2.813 14.2057 3.61215 14.3062C3.51225 16.3177 3.91183 18.2285 3.61215 20.0388C3.61215 20.3405 3.91183 20.4411 3.81193 20.8434C3.81193 21.8491 3.71204 22.8548 4.01172 23.5588C3.71204 24.0616 3.51225 24.5645 3.61215 25.3691C3.71204 25.3691 3.71204 25.5702 3.71204 25.6708C3.61215 26.1736 4.3114 25.8719 4.21151 26.3748C4.4113 26.8776 3.81193 26.5759 3.81193 26.8776V27.7828C4.3114 28.0845 5.31033 27.9839 6.10948 27.9839C7.00852 27.5816 8.30714 27.4811 8.9065 26.7771C9.40597 26.9782 9.80554 26.7771 10.1052 26.5759C10.1052 26.2742 10.4049 26.2742 10.305 25.8719C10.305 25.5702 10.1052 25.3691 10.2051 24.9668V22.0502C10.0053 19.7371 10.2051 17.1222 9.90544 14.8091C10.8045 14.7085 11.8034 14.7085 12.5027 14.4068C12.9022 13.904 12.9022 13.2 13.0021 12.496C13.2019 12.2948 13.2019 11.8925 13.2019 11.4902C13.4017 11.2891 13.3018 10.7863 13.3018 10.384C13.2019 9.78054 13.102 9.07654 12.5027 8.97597C11.6036 8.77483 10.5048 9.5794 9.50586 9.27769C9.50586 8.1714 9.20618 6.96455 9.50586 5.85827C10.305 5.65712 11.0043 5.45598 11.7035 5.25484ZM7.90757 10.0823C8.00746 10.384 8.20725 10.5851 8.30714 10.7863C8.40704 10.7863 8.50693 10.7863 8.50693 10.8868C9.70565 10.9874 10.7046 10.7863 11.6036 10.5851C11.6036 11.5908 11.3039 12.2948 11.1042 13.0994C10.4049 13.0994 9.60575 13.4011 9.10629 13.3005C8.80661 13.5017 8.70671 13.8034 8.50693 14.0045C8.50693 14.4068 8.60682 14.5074 8.50693 14.8091C8.30714 14.9097 8.40704 15.4125 8.30714 15.6137V17.1222C8.40704 17.4239 8.20724 17.4239 8.20724 17.6251V21.1451C8.10735 21.4468 8.30714 21.4468 8.30714 21.6479V24.6651C8.40704 24.9668 8.20725 25.4696 8.40703 25.5702C8.30714 25.9725 8.00746 25.5702 7.60788 25.6708C7.10842 25.7713 6.70884 26.0731 6.10948 26.0731C6.20938 25.6708 6.40916 25.4696 6.40916 24.9668C6.40916 24.5645 6.00959 24.6651 5.9097 24.4639C6.10948 23.8605 6.50906 23.3576 6.60895 22.6536C6.80874 22.1508 7.30821 21.3462 6.90863 20.8434C6.40916 20.7428 6.40916 21.1451 6.10948 21.2456C6.10948 21.3462 6.10948 21.4468 6.00959 21.4468C6.00959 21.5474 6.00959 21.6479 5.9097 21.6479C5.9097 21.7485 5.70991 21.7485 5.9097 21.6479C5.9097 21.5474 5.9097 21.4468 6.00959 21.4468C6.00959 21.3462 6.00959 21.2456 6.10948 21.2456V20.9439C6.50906 20.3405 6.80874 19.7371 6.90863 18.9325C7.10842 18.6308 7.20831 18.2285 7.3082 17.9268C7.50799 17.6251 7.60789 17.0217 7.4081 16.7199C6.90863 16.7199 6.60895 17.0217 6.50906 17.4239C6.20938 17.2228 6.70884 17.0217 6.60895 16.7199C6.70884 16.5188 6.80874 16.1165 6.90863 15.9154C7.10842 15.5131 7.50799 14.6079 6.90863 14.3062C6.50906 14.3062 6.30927 14.5074 6.20938 14.8091C6.00959 15.0102 5.8098 15.2114 5.70991 15.5131C5.31034 15.4125 5.61002 14.8091 5.51012 14.4068C5.41023 13.904 5.61002 13.5017 5.51012 13.2C4.91076 12.3954 3.51225 13.0994 2.31353 12.8982C2.21364 12.5965 2.11375 11.8925 2.21364 11.6914C3.21257 11.5908 4.71098 11.8925 5.41023 11.4902C5.41023 11.3897 5.41023 11.2891 5.51012 11.2891C5.61002 10.5851 5.21044 10.2834 5.01066 9.88111C5.21044 9.07654 5.01065 7.86969 5.11055 6.86398C5.31033 6.76341 5.41023 6.46169 5.61001 6.26055C5.70991 5.25484 6.30927 4.75199 6.30927 3.74627C6.00959 3.74627 5.70991 3.6457 5.70991 3.94742C5.41023 3.84685 5.31034 4.45027 5.21044 4.14856C5.11055 3.6457 5.41023 3.54513 5.51012 3.14285C6.10948 2.74056 6.70885 2.33828 7.4081 1.936C9.10629 1.73485 12.0032 1.53371 13.5016 2.13714C13.6015 2.74056 13.2019 3.04227 13.3018 3.6457H11.8034C10.7046 3.84684 9.80554 4.3497 8.80661 4.65141C8.60682 4.75198 8.50693 4.95313 8.30714 5.0537C8.30714 5.45598 8.10735 5.65712 8.00746 6.05941C7.70778 7.4674 7.90757 8.67426 7.90757 10.0823Z"/>
</symbol><symbol id="social-instagram" viewBox="0 0 22 22">
<path d="M22 12.5849C22 10.2076 21.698 7.83019 21.698 5.55189C21.698 4.75944 21.5974 4.06604 21.4967 3.27359C21.3961 2.97642 21.3961 2.58019 21.2954 2.18396C20.9935 1.98585 21.0941 1.58962 20.7922 1.39151C20.3896 1.1934 19.5844 1.29245 19.0811 1.1934C18.3766 1.1934 17.7727 1.09434 17.1688 0.995283C15.2564 0.896226 13.1427 0.896228 11.1297 0.896228C9.11669 0.896228 7.10367 0.79717 5.39261 0.5H3.17829C3.07764 0.5 3.07764 0.599059 2.97699 0.599059C2.37308 0.599059 1.86983 0.797171 1.36657 0.896228C1.16527 0.995284 0.963971 1.09434 0.662018 1.1934C0.561367 1.39151 0.158762 1.29245 0.0581108 1.58962C-0.143191 1.78774 0.259412 2.08491 0.0581108 2.18396V3.07547C0.259412 3.17453 0.0581131 3.66981 0.158764 3.86793V4.85849C0.158764 6.14623 0.259413 7.23585 0.259413 8.52359C0.762667 11.2972 0.662019 14.9623 0.360066 17.8349C0.561368 18.4292 0.76267 18.9245 0.863321 19.5189C1.16527 20.0142 1.16527 20.6085 1.56787 21.0047C2.07113 21.2028 2.77569 21.2028 3.48024 21.2028C3.88284 21.3019 4.1848 21.5 4.5874 21.5C7.40562 21.3019 10.1232 21.3019 13.0421 21.3019C15.7596 21.5 18.8798 21.5 21.3961 21.1038C21.5974 21.0047 21.4967 20.6085 21.5974 20.3113C21.4967 19.9151 21.7987 19.9151 21.7987 19.5189C22 17.4387 22 15.0613 22 12.5849ZM8.91539 6.4434C9.7206 6.24528 10.4252 6.14623 11.331 6.14623C12.0356 6.24528 12.6395 6.4434 13.2434 6.64151C13.344 6.83962 13.0421 7.13679 13.4447 7.33491C13.5453 7.33491 13.5453 7.3349 13.646 7.43396C14.0486 7.43396 14.4512 7.63208 14.7531 7.83019C15.2564 7.92925 15.2564 8.32547 15.8603 8.22642C15.7596 8.42453 15.7596 8.7217 15.7596 9.01887C16.0616 10.2075 16.2629 11.7925 16.0616 13.2783C15.8603 13.4764 15.8603 13.6745 15.7596 13.9717C15.4577 14.2689 15.2564 14.7642 14.9544 15.0613C14.8538 15.2594 14.6525 15.4575 14.4512 15.5566C14.3505 15.7547 14.2499 16.0519 13.9479 16.0519C13.646 16.25 13.344 16.0519 13.1427 15.9528C12.7401 16.1509 12.2369 16.25 11.9349 16.5472C11.1297 16.4481 10.3245 16.3491 9.51929 16.25C9.31799 16.1509 9.01604 15.9528 8.71409 15.9528C8.51278 15.7547 8.21083 15.5566 7.90888 15.4575C7.80823 15.3585 7.60693 15.3585 7.40563 15.2594C7.20432 15.2594 7.20432 15.0613 6.90237 15.0613C6.80172 14.6651 6.49977 14.467 6.39912 13.9717C6.19782 13.6745 6.09716 13.1792 5.89586 12.783C5.89586 11.3962 5.99651 10.1085 6.29846 9.01887C6.60042 8.42453 7.10367 7.92925 7.40563 7.33491C7.60693 7.33491 7.80823 7.23585 7.80823 7.03774C8.11018 7.13679 8.21083 6.93868 8.51278 6.93868C8.71409 6.93868 8.71409 6.64151 8.91539 6.4434ZM7.20432 3.76887C7.10367 3.4717 7.10367 3.07547 7.10367 2.67925C7.10367 2.38208 7.40563 2.38208 7.40563 2.18396C7.40563 2.08491 7.30497 2.08491 7.20432 2.08491C7.30497 1.98585 7.90888 1.98585 8.00953 2.08491C8.11018 2.58019 7.60693 2.58019 7.50628 2.7783C7.50628 2.97642 7.80823 2.7783 8.00953 2.87736C8.00953 3.76887 7.90888 4.36321 8.00953 5.05661H7.50628C7.50628 5.25472 7.70758 5.25472 8.00953 5.25472C7.90888 5.55189 8.11018 5.65094 8.11018 5.84906C7.90888 6.04717 7.40562 5.84906 7.00302 5.94811C7.00302 5.35377 7.30497 4.56132 7.20432 3.76887ZM6.49977 2.18396C6.60042 2.18396 6.60042 2.18396 6.70107 2.28302C6.90237 2.58019 6.70107 2.97642 6.60042 3.17453C6.39911 2.97642 6.60042 2.48113 6.49977 2.18396ZM6.70107 3.96698C6.60042 3.86792 6.49977 3.76887 6.49977 3.4717C6.70107 3.57075 6.70107 3.76887 6.70107 3.96698ZM6.70107 5.35377C6.60042 5.45283 6.60042 5.35377 6.60042 5.15566C6.70107 5.0566 6.70107 5.25472 6.70107 5.35377ZM6.49977 5.55189C6.70107 5.55189 6.60042 5.75 6.70107 5.75C6.70107 5.94812 6.39912 5.94811 6.29846 5.84906C6.39912 5.75 6.49977 5.65094 6.49977 5.55189ZM4.1848 4.36321C4.1848 4.26415 4.1848 4.16509 4.08414 4.16509C3.98349 3.4717 4.1848 2.7783 4.08414 2.18396C4.3861 1.98585 4.88935 2.18396 5.19131 2.08491V3.17453C5.09066 3.27359 4.99 3.27359 4.7887 3.27359C4.68805 3.57076 5.09066 3.37264 5.19131 3.57076C5.19131 4.46227 5.09066 5.35377 5.39261 5.94811C4.7887 5.84906 4.48675 6.04717 3.9835 6.04717C4.08415 5.45283 3.9835 4.66038 4.48675 4.46226C4.48675 4.36321 4.1848 4.46226 4.1848 4.36321ZM3.68154 4.36321C3.48024 4.36321 3.48024 3.86793 3.58089 3.76887C3.88284 3.76887 3.78219 4.26415 3.68154 4.36321ZM3.48024 5.35377C3.58089 5.0566 3.48024 5.0566 3.58089 4.66038C3.78219 4.66038 3.78219 5.45283 3.48024 5.35377ZM3.68154 3.27359C3.37959 3.37264 3.37959 2.97642 3.48024 2.87736C3.78219 2.87736 3.88285 3.17453 3.68154 3.27359ZM3.68154 2.18396C3.68154 2.38208 3.58089 2.38208 3.58089 2.48113C3.37959 2.48113 3.48024 2.28302 3.37959 2.28302C3.48024 2.18396 3.58089 2.18396 3.68154 2.18396ZM3.48024 5.84906C3.58089 5.84906 3.58089 6.14623 3.37959 6.04717C3.48024 6.04717 3.48024 5.94811 3.48024 5.84906ZM2.77568 2.18396C2.77568 2.48113 2.37308 2.48113 2.37308 2.18396H2.77568ZM1.76918 2.28302C1.76918 2.48113 1.46723 2.48113 1.36657 2.67925C1.16527 2.48113 1.46722 2.18396 1.76918 2.28302ZM1.36657 2.97641C1.56788 2.7783 1.86983 2.58019 2.07113 2.38208C2.07113 2.28302 2.17178 2.28302 2.17178 2.18396H2.37308C2.47373 2.58019 2.07113 2.48113 2.07113 2.67925C2.07113 2.7783 1.97048 2.7783 1.97048 2.87736C1.97048 3.17453 2.07113 3.4717 2.07113 3.86793C1.76918 3.86793 1.76918 4.1651 1.46722 4.06604C1.46722 3.66981 1.26592 3.4717 1.36657 2.97641ZM1.46722 6.24529V4.66038C1.66853 4.46226 1.86983 4.26415 2.07113 4.16509C2.37308 4.66038 2.27243 5.55189 2.57438 6.04717C2.17178 6.14623 1.76918 6.14623 1.46722 6.24529ZM19.7857 17.2406C19.685 18.2311 19.5844 19.2217 19.3831 20.0142C16.4642 20.1132 13.344 20.0141 10.4252 20.2123C10.2239 20.2123 10.1232 20.2123 10.2238 20.0142C9.9219 20.0142 9.9219 20.2123 9.72059 20.2123C9.9219 19.9151 10.1232 19.3207 9.9219 18.9245C9.11669 18.9245 9.11669 19.717 8.81474 20.2123C8.11018 20.1132 7.70758 20.3113 7.00302 20.3113C7.20432 19.6179 7.70758 19.3208 7.90888 18.6274C7.50628 18.1321 6.90237 18.7264 6.70107 19.1226C6.49977 19.6179 6.09716 19.9151 5.89586 20.4104H4.88935C5.09066 19.9151 5.39261 19.5189 5.69456 19.0236C5.89586 18.5283 6.29847 18.3302 6.39912 17.6368C6.19782 17.3396 5.99651 17.6368 5.69456 17.6368C5.59391 17.8349 5.39261 17.934 5.29196 18.1321C5.09065 18.5283 4.7887 18.8255 4.5874 19.2217C4.3861 19.4198 4.28545 19.2217 4.08414 19.4198C3.68154 19.717 3.48024 20.1132 3.07764 20.4104C2.87633 20.3113 3.07764 20.0142 3.27894 20.0142C3.27894 19.816 3.17829 19.5189 3.37959 19.4198C3.48024 19.0236 3.58089 18.8255 3.78219 18.5283C3.88284 17.8349 4.28545 17.3396 4.48675 16.6462C3.88284 16.7453 3.78219 17.2406 3.48024 17.6368C3.27894 18.033 2.97699 18.4292 2.77568 18.9245C2.57438 18.8255 2.77569 18.3302 2.67503 18.1321C2.77569 17.5377 2.97699 17.0424 3.07764 16.4481C3.17829 16.25 3.27894 15.9528 3.27894 15.6557C3.48024 15.4575 3.27894 15.0613 3.17829 14.8632C2.97699 14.8632 2.77569 14.9623 2.67503 15.1604C2.47373 15.1604 2.47373 15.6557 2.37308 15.4575C2.37308 12.8821 1.86983 10.7028 1.86983 8.12736C1.86983 7.83019 1.66853 7.73113 1.66853 7.43396C3.27894 7.43396 4.7887 7.53302 6.49977 7.63207C6.39912 7.73113 6.29847 7.92925 6.19781 8.0283C6.09716 8.12736 5.99651 8.22642 5.79521 8.32547C5.1913 10.0094 4.7887 12.2877 5.19131 14.467C5.39261 15.0613 5.79521 15.4575 6.19781 15.8538C7.10367 16.3491 7.80823 16.9434 8.71409 17.5377C10.4252 17.934 12.5388 17.934 14.2499 17.5377C14.4512 17.4387 14.7531 17.3396 14.9544 17.1415C16.3636 15.9528 17.7727 14.6651 17.974 12.2877V10.9009C17.7727 9.31604 17.2694 8.0283 16.2629 7.33491C16.5648 7.13679 17.3701 7.3349 17.974 7.43396C18.1753 7.43396 18.3766 7.43396 18.6785 7.43396C19.0811 7.43396 19.5844 7.3349 20.0876 7.43396C20.1883 7.63207 20.1883 7.92925 20.2889 8.22642C20.1883 9.91038 20.0876 11.4953 20.0876 13.2783C20.1883 13.7736 20.1883 14.2689 20.2889 14.6651C20.0876 15.4575 19.987 16.3491 19.7857 17.2406ZM20.1883 6.14623C19.5844 6.04717 18.9805 5.84906 18.2759 5.75C18.3766 5.45283 19.0811 5.75 19.2824 5.55189C19.685 5.35378 19.5844 4.66038 19.5844 4.06604C19.5844 3.76887 19.685 3.4717 19.685 2.97641C19.2824 1.98585 17.8733 2.58019 16.7661 2.48113C16.5648 3.17453 16.2629 4.26415 16.4642 5.15566C16.6655 5.65094 17.4707 5.45283 17.974 5.65094C17.8733 5.94811 17.2694 5.75 16.9675 5.75C16.6655 5.65095 16.2629 5.65094 15.9609 5.55189C13.646 5.65094 11.633 5.55189 9.41864 5.75C9.51929 4.56132 9.51929 3.27359 9.31799 2.18396H12.4382C12.1362 2.58019 11.5323 2.67924 11.1297 2.97641C10.7271 3.17453 10.2238 3.4717 10.0225 3.86793C10.2238 3.96698 10.5258 3.66981 10.8278 3.4717C11.2304 3.37264 11.331 3.07547 11.633 2.97641C12.0356 2.58019 12.7401 2.38208 13.344 2.08491C13.7466 2.08491 14.0486 2.08491 14.3505 2.18396C15.659 2.18396 16.8668 2.28302 18.1753 2.28302C18.7792 2.38208 19.685 2.38208 20.1883 2.58019C20.2889 2.87736 20.3896 3.17453 20.4902 3.4717C20.3896 4.46226 20.1883 5.25472 20.1883 6.14623ZM14.2499 2.48113C14.3505 2.38208 14.2499 2.38208 14.2499 2.48113V2.48113ZM14.2499 2.48113C13.7466 2.67924 13.2434 2.7783 12.8408 3.17453C13.344 2.97642 13.9479 2.87736 14.2499 2.48113ZM15.357 3.07547C15.4577 2.97642 15.357 2.97642 15.357 3.07547V3.07547ZM13.5453 3.96698C14.2499 3.76887 14.7531 3.37264 15.2564 3.07547C14.8538 3.07547 14.6525 3.37264 14.2499 3.4717C14.1492 3.66981 13.7466 3.66981 13.5453 3.96698ZM12.8408 3.17453C12.7401 3.17453 12.9414 3.27359 12.8408 3.17453V3.17453ZM12.2369 3.76887C12.3375 3.66981 12.2369 3.66981 12.2369 3.76887V3.76887ZM12.1362 3.86793C12.2369 3.86793 12.2369 3.76887 12.1362 3.86793C12.1362 3.76887 12.1362 3.76887 12.1362 3.86793ZM12.0356 3.86793C12.1362 3.86793 12.1362 3.86793 12.0356 3.86793C12.0356 3.76887 12.0356 3.86793 12.0356 3.86793ZM11.2304 4.46226C11.5323 4.36321 11.8343 4.1651 12.0356 3.86793C11.7336 4.06604 11.4317 4.26415 11.2304 4.46226ZM13.5453 5.45283C14.0486 5.45283 14.2499 5.0566 14.7531 4.95755C15.0551 4.66038 15.5583 4.56132 15.7596 4.16509C15.1557 4.16509 14.9544 4.56132 14.5518 4.66038C14.2499 5.0566 13.7466 5.15566 13.5453 5.45283ZM11.2304 4.46226C10.9284 4.46226 11.2304 4.75943 11.2304 4.46226V4.46226ZM10.6265 4.85849C10.7271 4.85849 10.8278 4.85849 10.6265 4.85849C10.7271 4.75943 10.6265 4.85849 10.6265 4.85849ZM13.5453 5.45283C13.344 5.55189 13.5453 5.55189 13.5453 5.45283V5.45283ZM12.3375 7.23585C12.1362 7.03774 11.633 7.03774 11.331 6.83962C10.6265 6.83962 10.1232 6.93868 9.61994 7.03774C9.31799 7.23585 9.01604 7.33491 8.71409 7.53302C8.41213 7.73113 8.31148 7.92925 7.90888 8.0283C7.70758 8.22642 7.50628 8.52358 7.20432 8.62264C7.20432 8.82075 7.00302 8.91981 6.90237 9.01887C6.80172 9.11792 6.80172 9.31604 6.70107 9.41509C6.70107 9.51415 6.70107 9.71227 6.60042 9.71227C6.70107 11.1981 6.90237 12.5849 7.30497 13.8726C7.60693 14.467 8.31148 14.6651 8.71409 15.1604C9.31799 15.4575 10.0225 15.5566 10.8278 15.6557C11.1297 15.5566 11.4317 15.5566 11.7336 15.5566C12.9414 15.3585 13.8473 14.8632 14.5518 14.1698C14.6525 13.8726 14.8538 13.6745 15.0551 13.4764C14.7531 12.783 15.357 12.3868 15.5583 11.8915C15.5583 10.6038 15.357 9.41509 14.9544 8.52359C14.6525 7.92925 14.0486 7.73113 13.5453 7.43396C13.4447 7.43396 13.344 7.43396 13.344 7.33491C13.1427 7.23585 12.6395 7.13679 12.3375 7.23585ZM8.91539 11.5943C8.81474 11.4953 8.81474 11.3962 8.71409 11.1981C9.01604 11.0991 8.91539 11.3962 8.91539 11.5943ZM9.01604 11.8915C9.01604 11.7925 9.11669 11.8915 9.01604 11.8915C9.01604 12.0896 9.01604 11.9906 9.01604 11.8915ZM9.41864 9.81132C9.41864 9.71226 9.51929 9.81132 9.41864 9.81132C9.51929 9.91038 9.41864 9.91038 9.41864 9.81132ZM11.1297 7.73113C10.9284 8.0283 11.1297 8.32547 11.2304 8.52359C10.9284 8.52359 10.6265 7.73113 11.1297 7.73113ZM11.5323 11.5943C11.4317 11.5943 11.5323 11.5943 11.5323 11.5943C11.633 11.5943 11.5323 11.6934 11.5323 11.5943ZM12.2369 14.467C12.2369 14.3679 12.3375 14.467 12.4382 14.467C12.4382 14.566 12.2369 14.566 12.2369 14.467ZM14.4512 11.9906C14.2499 11.8915 14.3505 12.1887 14.0486 12.1887C14.1492 11.9906 14.1492 11.8915 14.2499 11.6934C14.4512 11.6934 14.5518 11.7924 14.4512 11.9906ZM13.344 8.22642C13.5453 8.32547 13.7466 8.42453 13.9479 8.62264C14.0486 8.82075 14.1492 9.01887 14.3505 9.11792C14.4512 9.91038 14.5518 10.6038 14.5518 11.4953C14.2499 11.5943 14.1492 11.7925 13.8473 11.8915C13.0421 11.8915 12.4382 11.6934 11.9349 11.3962C11.7336 11.0991 11.5323 10.9009 11.4317 10.6038V9.51415C11.633 9.31604 11.7336 9.11792 11.9349 8.91981C12.1362 8.82075 12.4382 8.7217 12.4382 8.32547C12.4382 8.22642 12.3375 8.22641 12.3375 8.12736C12.5388 8.12736 12.5388 8.32547 12.7401 8.32547C12.9414 8.32547 13.0421 8.12736 13.344 8.22642Z"/>
</symbol><symbol id="social-twitter" viewBox="0 0 25 20">
<path d="M24.225 4.3001C24.025 3.9001 23.325 4.0001 22.825 3.9001H21.725C21.825 3.5001 22.025 3.3001 22.225 2.9001C22.325 2.5001 22.525 2.2001 22.425 1.6001C22.525 1.4001 22.625 1.2001 22.725 1.0001C22.825 0.900095 22.925 0.500098 22.825 0.300098C22.725 0.100098 22.525 0.100098 22.225 0.100098C22.125 0.100098 22.025 0.200096 22.025 0.200096C21.625 0.600096 21.225 1.2001 20.725 1.6001H20.625C20.525 1.6001 20.625 1.6001 20.525 1.7001C20.425 1.8001 20.225 1.9001 20.125 1.9001C19.825 2.1001 19.625 2.3001 19.225 2.4001C18.725 2.2001 18.025 2.1001 17.325 2.0001C16.125 2.1001 15.025 2.2001 14.325 2.7001C13.425 3.0001 12.825 3.7001 12.225 4.3001C12.225 4.6001 11.925 4.7001 11.825 5.0001C11.825 5.0001 11.825 5.1001 11.725 5.1001C11.725 5.3001 11.625 5.4001 11.625 5.6001C11.625 5.7001 11.825 6.0001 11.625 6.1001C10.825 6.0001 10.125 5.5001 9.52501 5.1001C8.82501 4.7001 8.02501 4.5001 7.42501 4.0001C6.72502 3.7001 6.12501 3.2001 5.62501 2.7001C5.42501 2.4001 5.12501 2.2001 4.92501 1.8001C4.52501 1.6001 4.72501 0.900097 4.22501 0.900097C3.92501 0.900097 3.92501 1.1001 3.82501 1.3001C3.72501 1.5001 3.42501 1.5001 3.42501 1.8001C3.42501 1.8001 3.42501 1.9001 3.32501 1.9001C3.12501 3.0001 2.82501 3.9001 2.82501 5.2001C2.92501 5.6001 3.12502 5.9001 3.42501 6.2001C3.02501 6.3001 2.72501 6.4001 2.52501 6.7001C2.42501 7.8001 2.92501 8.3001 3.22501 9.0001C3.32501 9.40009 3.62501 9.7001 3.82501 10.0001C3.82501 10.2001 4.02501 10.3001 4.12501 10.4001C4.12501 10.5001 4.22501 10.5001 4.22501 10.6001C4.22501 10.7001 4.52501 10.8001 4.32501 10.8001C3.92501 10.9001 3.32501 10.9001 3.02501 11.2001C2.92501 11.5001 2.92501 12.0001 3.02501 12.3001C3.02501 12.5001 3.32501 12.6001 3.32501 12.8001C3.82501 13.2001 4.42501 13.5001 4.92501 13.9001C5.52501 14.1001 6.12501 14.2001 6.82501 14.3001C6.72501 14.6001 6.52501 14.9001 6.22501 15.0001C5.42501 15.4001 4.42501 15.5001 3.52501 15.7001C2.92501 15.7001 2.52501 15.9001 1.92501 15.9001C1.62501 16.0001 1.02501 16.0001 0.825013 16.1001C0.725013 16.2001 0.725012 16.2001 0.625012 16.3001C0.525012 16.7001 0.725013 17.0001 1.02501 17.2001C1.02501 17.5001 1.22501 17.5001 1.42501 17.6001C1.52501 17.8001 1.72501 17.9001 1.82501 18.0001C2.32501 18.5001 3.12501 18.8001 3.72501 19.1001C4.52501 19.3001 5.32501 19.5001 6.22501 19.6001C7.12501 19.7001 8.12501 19.7001 9.02501 19.8001H10.025C10.525 19.9001 11.225 19.9001 11.925 19.9001C12.025 19.8001 12.225 19.8001 12.425 19.8001C12.925 19.5001 13.625 19.4001 14.025 19.1001C14.625 18.9001 15.025 18.5001 15.625 18.2001C16.525 17.4001 17.525 16.9001 18.125 15.8001C18.325 15.6001 18.525 15.4001 18.525 15.1001C18.825 14.9001 18.925 14.6001 19.125 14.4001C19.525 14.0001 19.825 13.5001 20.125 13.0001C20.425 12.5001 20.725 11.9001 21.025 11.4001C21.025 11.0001 21.325 10.9001 21.325 10.5001C21.525 10.3001 21.525 9.8001 21.725 9.6001C21.725 9.3001 21.725 9.2001 21.825 9.0001C21.825 7.7001 21.825 6.6001 21.525 5.6001C22.125 5.4001 22.725 5.3001 23.125 5.0001C23.925 5.3001 24.425 4.9001 24.225 4.3001ZM20.825 8.3001C20.625 9.2001 20.225 9.7001 19.825 10.3001C19.925 10.7001 19.725 10.8001 19.725 11.2001C19.525 11.5001 19.425 11.9001 19.325 12.2001C19.125 12.5001 19.025 12.8001 18.825 13.1001C18.425 13.6001 18.025 14.2001 17.625 14.7001C17.225 15.3001 16.725 15.7001 16.325 16.2001C15.925 16.7001 15.425 17.1001 14.925 17.5001C14.425 17.7001 14.025 17.9001 13.625 18.2001C13.425 18.3001 13.125 18.4001 12.925 18.5001C12.725 18.6001 12.425 18.6001 12.225 18.8001C11.125 18.9001 9.92501 19.0001 8.62501 18.9001C7.62501 18.8001 6.52501 18.7001 5.62501 18.5001C4.72501 18.3001 4.12501 17.8001 3.32501 17.5001C3.52501 17.3001 3.92501 17.3001 4.32501 17.3001C4.32501 17.1001 4.72501 17.3001 4.72501 17.2001C5.02501 17.3001 5.02501 17.1001 5.22501 17.1001C5.82501 16.9001 6.42501 16.8001 6.92501 16.5001C7.22502 16.4001 7.32501 16.1001 7.62501 15.9001C7.62501 15.7001 7.72501 15.6001 7.82501 15.5001C7.82501 15.2001 8.02501 15.1001 7.92501 14.7001C8.02501 14.5001 8.22501 14.4001 8.22501 14.0001C8.12501 13.9001 8.12501 13.7001 7.92501 13.6001C7.92501 13.4001 7.52501 13.5001 7.52501 13.4001C7.22501 13.4001 7.12501 13.4001 6.92501 13.3001C6.72502 13.3001 6.42501 13.4001 6.42501 13.2001C5.62501 13.2001 5.12501 12.8001 4.52501 12.5001C4.92501 12.2001 5.52501 12.1001 5.82501 11.8001C6.32501 11.7001 6.92501 11.7001 6.92501 11.1001C6.92501 10.4001 6.12501 10.4001 5.62501 10.3001C4.82501 9.6001 4.42501 8.6001 3.82501 7.8001C4.02501 7.6001 4.42501 7.6001 4.52501 7.4001C5.02501 7.5001 5.02501 7.1001 5.22501 6.9001C5.22501 6.4001 4.92501 6.3001 4.62501 6.1001C4.32501 5.9001 4.12502 5.6001 3.92501 5.4001C3.92501 4.6001 3.92501 3.7001 4.02501 3.0001C4.12501 3.0001 4.12501 3.0001 4.12501 3.1001C4.32501 3.5001 4.72502 3.9001 4.92501 4.3001C5.42501 4.7001 5.82501 5.2001 6.52501 5.4001C7.02501 5.8001 7.62501 6.0001 8.12501 6.4001C8.72501 6.7001 9.32501 7.0001 9.82501 7.3001C10.525 7.5001 10.925 8.0001 11.825 7.9001C12.025 7.8001 12.225 7.7001 12.425 7.6001C12.725 7.1001 12.325 6.5001 12.525 6.0001C12.825 5.3001 13.325 5.0001 13.825 4.5001C14.125 4.3001 14.425 4.2001 14.625 4.0001C14.925 3.9001 15.325 3.8001 15.625 3.6001C16.025 3.6001 16.325 3.5001 16.625 3.5001H17.925C18.125 3.6001 18.425 3.6001 18.625 3.6001C18.825 3.7001 19.025 3.9001 19.325 4.0001C20.125 4.7001 20.625 5.7001 20.725 7.0001C20.725 7.3001 20.825 7.7001 20.825 8.3001ZM21.125 2.7001C21.025 3.0001 20.925 3.4001 20.525 3.5001C20.525 3.4001 20.425 3.4001 20.425 3.3001C20.425 3.1001 20.625 3.1001 20.725 3.0001C20.825 2.9001 20.925 2.7001 21.125 2.7001C21.225 2.7001 21.125 2.6001 21.125 2.7001ZM15.625 5.7001C15.825 5.8001 15.925 6.0001 16.125 6.1001C16.225 6.3001 16.425 6.4001 16.725 6.5001C16.725 6.3001 17.025 6.5001 17.125 6.3001C17.325 6.3001 17.325 6.1001 17.425 6.0001C17.425 5.5001 17.325 5.0001 17.025 4.7001C16.325 4.2001 15.325 4.7001 15.625 5.7001Z"/>
</symbol><symbol id="toy" viewBox="0 0 60 60">
<path opacity="0.5" d="M0 43.9933L27.4 60V36.5436L0 20.4362V43.9933ZM51.3 12.4832V15C51.3 16.8121 47.8 18.3221 43.6 18.3221C39.3 18.3221 35.9 16.8121 35.9 15V10.8725C36.2 12.5839 39.5 13.9933 43.6 13.9933C47.9 13.9933 51.3 12.4832 51.3 10.6711C51.3 8.85907 47.8 7.349 43.6 7.349C43.3 7.349 42.9 7.349 42.6 7.349L37.6 4.42954V7.55034C37.6 9.36242 34.1 10.8725 29.9 10.8725C27.2 10.8725 24.9 10.2685 23.5 9.36242C23.3 9.16108 23.1 8.95973 22.8 8.75839C22.4 8.3557 22.2 7.95302 22.2 7.55034V4.5302L17.4 7.349C17.1 7.349 16.7 7.349 16.3 7.349C12 7.349 8.60001 8.85907 8.60001 10.6711C8.60001 12.4832 12.1 13.9933 16.3 13.9933C20.4 13.9933 23.7 12.5839 24 10.8725V15C24 16.8121 20.5 18.3221 16.3 18.3221C12 18.3221 8.60001 16.8121 8.60001 15V12.5839L2.60001 16.1074L30.1 32.2148L57.5 16.2081L51.3 12.4832ZM37.7 22.7517C37.7 24.5638 34.2 26.0738 30 26.0738C25.7 26.0738 22.3 24.5638 22.3 22.7517V18.6242C22.6 20.3356 25.9 21.745 30 21.745C34.1 21.745 37.4 20.3356 37.7 18.6242V22.7517ZM32.6 36.745V60L60 43.9933V20.7383L32.6 36.745ZM29.9 6.6443C34.2 6.6443 37.6 5.13423 37.6 3.32215C37.6 1.51007 34.1 0 29.9 0C25.6 0 22.2 1.51007 22.2 3.32215C22.2 5.13423 25.6 6.6443 29.9 6.6443Z" fill="#149080"/>
</symbol><symbol id="video" viewBox="0 0 32 22">
<path d="M26 10L32 6V22L26 18V10ZM24 10V18C24 20.2 22.2 22 20 22H4C1.8 22 0 20.2 0 18V10C0 7.8 1.8 6 4 6H14C14 4.9 14.9 4 16 4V2H5C4.4 2 4 1.6 4 1C4 0.4 4.4 0 5 0H17C17.6 0 18 0.4 18 1V4C19.1 4 20 4.9 20 6C22.2 6 24 7.8 24 10ZM12 10H4V18H12V10ZM20 11C20 10.4 19.6 10 19 10H15C14.4 10 14 10.4 14 11C14 11.6 14.4 12 15 12H19C19.6 12 20 11.6 20 11Z" fill="#63D1BB"/>
</symbol><symbol id="zigzag-fill-desktop" viewBox="0 0 768 24">
<path d="M749.784 0C740.142 0 740.142 9.88235 730.567 9.88235C720.992 9.88235 720.925 0 711.35 0C701.776 0 701.709 9.88235 692.134 9.88235C682.492 9.88235 682.492 0 672.85 0C663.209 0 663.209 9.88235 653.634 9.88235C643.992 9.88235 643.992 0 634.417 0C624.776 0 624.776 9.88235 615.201 9.88235C605.626 9.88235 605.358 0 595.783 0C586.142 0 586.142 9.88235 576.567 9.88235C566.992 9.88235 566.858 0 557.283 0C547.642 0 547.642 9.88235 538.067 9.88235C528.425 9.88235 528.425 0 518.783 0C509.142 0 509.142 9.88235 499.567 9.88235C489.925 9.88235 489.925 0 480.35 0C470.776 0 470.642 9.88235 461 9.88235C451.358 9.88235 451.358 0 441.783 0C432.142 0 432.142 9.88235 422.567 9.88235C412.925 9.88235 412.925 0 403.283 0C393.642 0 393.642 9.88235 384.067 9.88235C374.425 9.88235 374.425 0 364.85 0C355.209 0 355.209 9.88235 345.634 9.88235C335.992 9.88235 335.992 0 326.417 0C316.776 0 316.776 9.88235 307.134 9.88235C297.492 9.88235 297.492 0 287.85 0C278.209 0 278.209 9.88235 268.567 9.88235C258.925 9.88235 258.925 0 249.283 0C239.642 0 239.642 9.88235 230 9.88235C220.358 9.88235 220.358 0 210.717 0C201.075 0 201.075 9.88235 191.433 9.88235C181.791 9.88235 181.791 0 172.15 0C162.508 0 162.508 9.88235 152.933 9.88235C143.291 9.88235 143.291 0 133.65 0C124.008 0 124.008 9.88235 114.366 9.88235C104.724 9.88235 104.724 0 95.0826 0C85.4409 0 85.4409 9.88235 75.7991 9.88235C66.1574 9.88235 66.1574 0 56.5157 0C47.1417 0 47.1417 9.88235 37.5 9.88235C27.8583 9.88235 27.8583 0 18.2835 0C8.70869 0 8.64174 9.88235 -1 9.88235V24H769V9.88235C759.358 9.88235 759.358 0 749.784 0Z" fill="white"/>
</symbol></svg>