<svg width="28" height="35" viewBox="0 0 28 35" fill="none" xmlns="http://www.w3.org/2000/svg">
<path d="M13.9687 0.0444336H13.8687L0.368652 1.44443V26.1444L13.8687 34.1444L27.2687 26.1444V1.44443L13.9687 0.0444336ZM25.3687 12.1444L13.8687 5.34443V5.24443H13.7687L13.6687 5.14443V5.24443L2.26865 12.1444V3.14443L13.7687 1.94443L25.3687 3.14443V12.1444ZM13.7687 6.84443L25.2687 13.5444L20.7687 16.1444L13.6687 11.9444V13.3444L19.5687 16.8444L18.6687 17.3444L13.6687 14.3444V15.7444L17.4687 18.0444L16.6687 18.5444L13.6687 16.7444V18.1444L15.5687 19.2444L13.7687 20.3444L2.36865 13.6444L13.7687 6.84443ZM2.26865 15.1444L13.6687 21.9444V22.9444L5.76865 18.2444V19.6444L13.7687 24.4444V25.5444L5.76865 20.8444V22.2444L13.7687 27.0444L21.8687 22.1444V16.9444L25.2687 14.9444V24.9444L13.7687 31.8444L2.26865 25.0444V15.1444Z" />
</svg>
